<?xml version="1.0" encoding="UTF-8"?>
<svg width="32px" height="24px" viewBox="0 0 32 24" version="1.1" xmlns="http://www.w3.org/2000/svg" xmlns:xlink="http://www.w3.org/1999/xlink">
    <!-- Generator: Sketch 52.5 (67469) - http://www.bohemiancoding.com/sketch -->
    <title>ic_card_mastercard_32dp</title>
    <desc>Created with Sketch.</desc>
    <g id="iOS" stroke="none" stroke-width="1" fill="none" fill-rule="evenodd">
        <g id="Подтверждение-перевода_2" transform="translate(-327.000000, -346.000000)">
            <g id="Group-3" transform="translate(0.000000, 310.000000)">
                <g id="Source-/-Card-/-Sum">
                    <g id="Система" transform="translate(327.000000, 36.000000)">
                        <g id="Group">
                            <rect id="Rectangle" fill="#F5F5F5" x="0" y="0" width="32" height="24" rx="4"></rect>
                            <polygon id="rect19" fill="#FF5F00" points="13.3333333 6.73333359 20 6.73333359 20 17.266667 13.3333333 17.266667"></polygon>
                            <path d="M13.489118,12 C13.489118,9.87037037 14.4788087,7.98148148 16,6.75925926 C14.882016,5.87037037 13.4707904,5.33333333 11.9312715,5.33333333 C8.28407789,5.33333333 5.33333333,8.31481481 5.33333333,12 C5.33333333,15.6851852 8.28407789,18.6666667 11.9312715,18.6666667 C13.4707904,18.6666667 14.882016,18.1296296 16,17.2407407 C14.4788087,16.037037 13.489118,14.1296296 13.489118,12 L13.489118,12 Z" id="XMLID_330_" fill="#EB001B"></path>
                            <path d="M26.6666667,12 C26.6666667,15.6851852 23.7159221,18.6666667 20.0687285,18.6666667 C18.5292096,18.6666667 17.117984,18.1296296 16,17.2407407 C17.5395189,16.0185185 18.510882,14.1296296 18.510882,12 C18.510882,9.87037037 17.5211913,7.98148148 16,6.75925926 C17.117984,5.87037037 18.5292096,5.33333333 20.0687285,5.33333333 C23.7159221,5.33333333 26.6666667,8.33333333 26.6666667,12 L26.6666667,12 Z" id="path22" fill="#F79E1B"></path>
                        </g>
                    </g>
                </g>
            </g>
        </g>
    </g>
</svg>