<?xml version="1.0" encoding="UTF-8"?>
<svg width="25px" height="24px" viewBox="0 0 25 24" version="1.1" xmlns="http://www.w3.org/2000/svg" xmlns:xlink="http://www.w3.org/1999/xlink">
    <!-- Generator: Sketch 52.5 (67469) - http://www.bohemiancoding.com/sketch -->
    <title>ic_menu_more_grey_24dp</title>
    <desc>Created with Sketch.</desc>
    <g id="iOS" stroke="none" stroke-width="1" fill="none" fill-rule="evenodd" fill-opacity="0.28">
        <g id="Экран-платежей" transform="translate(-325.000000, -624.000000)" fill="#000000">
            <g id="Tab-Bar-/-2" transform="translate(0.000000, 618.000000)">
                <g id="Tab" transform="translate(300.000000, 0.000000)">
                    <g id="Пятый" transform="translate(25.500000, 6.000000)">
                        <path d="M12,22 C6.4771525,22 2,17.5228475 2,12 C2,6.4771525 6.4771525,2 12,2 C17.5228475,2 22,6.4771525 22,12 C22,17.5228475 17.5228475,22 12,22 Z M6.5,13.5 C7.32842712,13.5 8,12.8284271 8,12 C8,11.1715729 7.32842712,10.5 6.5,10.5 C5.67157288,10.5 5,11.1715729 5,12 C5,12.8284271 5.67157288,13.5 6.5,13.5 Z M12,13.5 C12.8284271,13.5 13.5,12.8284271 13.5,12 C13.5,11.1715729 12.8284271,10.5 12,10.5 C11.1715729,10.5 10.5,11.1715729 10.5,12 C10.5,12.8284271 11.1715729,13.5 12,13.5 Z M17.5,13.5 C18.3284271,13.5 19,12.8284271 19,12 C19,11.1715729 18.3284271,10.5 17.5,10.5 C16.6715729,10.5 16,11.1715729 16,12 C16,12.8284271 16.6715729,13.5 17.5,13.5 Z" id="more"></path>
                    </g>
                </g>
            </g>
        </g>
    </g>
</svg>