<?xml version="1.0" encoding="UTF-8"?>
<svg width="25px" height="24px" viewBox="0 0 25 24" version="1.1" xmlns="http://www.w3.org/2000/svg" xmlns:xlink="http://www.w3.org/1999/xlink">
    <!-- Generator: Sketch 52.5 (67469) - http://www.bohemiancoding.com/sketch -->
    <title>ic_menu_finance_grey_24dp</title>
    <desc>Created with Sketch.</desc>
    <g id="iOS" stroke="none" stroke-width="1" fill="none" fill-rule="evenodd" fill-opacity="0.28">
        <g id="Экран-платежей" transform="translate(-25.000000, -624.000000)" fill="#000000" fill-rule="nonzero">
            <g id="Tab-Bar-/-2" transform="translate(0.000000, 618.000000)">
                <g id="Tab">
                    <g id="Первый" transform="translate(25.500000, 6.000000)">
                        <path d="M9.5,14 L8.49100518,14 C8.22788048,14 8,14.2273639 8,14.5078316 L8,14.9921684 C8,15.2786698 8.21983051,15.5 8.49100518,15.5 L9.5,15.5 L9.5,16.4903505 C9.5,16.7723472 9.72736394,17 10.0078316,17 L10.4921684,17 C10.7786698,17 11,16.7718221 11,16.4903505 L11,15.5 L13.5089948,15.5 C13.7721195,15.5 14,15.2726361 14,14.9921684 L14,14.5078316 C14,14.2213302 13.7801695,14 13.5089948,14 L11,14 L11,7 L10.0078316,7 C9.72133017,7 9.5,7.22817786 9.5,7.50964952 L9.5,14 Z M12,22 C6.4771525,22 2,17.5228475 2,12 C2,6.4771525 6.4771525,2 12,2 C17.5228475,2 22,6.4771525 22,12 C22,17.5228475 17.5228475,22 12,22 Z M13,13 C14.6568542,13 16,11.6568542 16,10 C16,8.34314575 14.6568542,7 13,7 L11,7 L11,13 L13,13 Z M13,11.5 L11,11.5 L11,8.5 L13,8.5 C13.8284271,8.5 14.5,9.17157288 14.5,10 C14.5,10.8284271 13.8284271,11.5 13,11.5 Z" id="finance"></path>
                    </g>
                </g>
            </g>
        </g>
    </g>
</svg>