<?xml version="1.0" encoding="UTF-8"?>
<svg width="25px" height="24px" viewBox="0 0 25 24" version="1.1" xmlns="http://www.w3.org/2000/svg" xmlns:xlink="http://www.w3.org/1999/xlink">
    <!-- Generator: Sketch 52.5 (67469) - http://www.bohemiancoding.com/sketch -->
    <title>ic_menu_chat_grey_24dp</title>
    <desc>Created with Sketch.</desc>
    <g id="iOS" stroke="none" stroke-width="1" fill="none" fill-rule="evenodd" fill-opacity="0.28">
        <g id="Экран-платежей" transform="translate(-250.000000, -624.000000)" fill="#000000">
            <g id="Tab-Bar-/-2" transform="translate(0.000000, 618.000000)">
                <g id="Tab" transform="translate(225.000000, 0.000000)">
                    <g id="Четвертый" transform="translate(25.500000, 6.000000)">
                        <path d="M9.1968615,21.6017934 L5.87240137,23.5014849 C5.39640677,23.7734818 5,23.5564136 5,23.009222 L5,19.1414328 C3.14863777,17.3265095 2,14.7973941 2,12 C2,6.4771525 6.4771525,2 12,2 C17.5228475,2 22,6.4771525 22,12 C22,17.5228475 17.5228475,22 12,22 C11.0269005,22 10.0862644,21.8610079 9.1968615,21.6017934 Z M7,9.50783157 L7,9.99216843 C7,10.2786698 7.22817786,10.5 7.50964952,10.5 L16.4903505,10.5 C16.7723472,10.5 17,10.2726361 17,9.99216843 L17,9.50783157 C17,9.22133017 16.7718221,9 16.4903505,9 L7.50964952,9 C7.22765279,9 7,9.22736394 7,9.50783157 Z M7,14.0078316 L7,14.4921684 C7,14.7786698 7.21983051,15 7.49100518,15 L12.5089948,15 C12.7721195,15 13,14.7726361 13,14.4921684 L13,14.0078316 C13,13.7213302 12.7801695,13.5 12.5089948,13.5 L7.49100518,13.5 C7.22788048,13.5 7,13.7273639 7,14.0078316 Z" id="chat"></path>
                    </g>
                </g>
            </g>
        </g>
    </g>
</svg>