<?xml version="1.0" encoding="UTF-8"?>
<svg width="24px" height="24px" viewBox="0 0 24 24" version="1.1" xmlns="http://www.w3.org/2000/svg" xmlns:xlink="http://www.w3.org/1999/xlink">
    <!-- Generator: Sketch 52.5 (67469) - http://www.bohemiancoding.com/sketch -->
    <title>ic_menu_share_black_24dp</title>
    <desc>Created with Sketch.</desc>
    <g id="iOS" stroke="none" stroke-width="1" fill="none" fill-rule="evenodd" fill-opacity="0.87">
        <g id="Выбор-получателя" transform="translate(-337.000000, -30.000000)" fill="#000000">
            <g id="NavBar-/-Small-/-Simple">
                <g id="ic_right" transform="translate(337.000000, 30.000000)">
                    <path d="M11.25,5.31066017 L8.38388348,8.1767767 C8.18862133,8.37203884 7.87203884,8.37203884 7.6767767,8.1767767 L7.3232233,7.8232233 C7.12796116,7.62796116 7.12796116,7.31137867 7.3232233,7.11611652 L11.6464466,2.79289322 C11.8417088,2.59763107 12.1582912,2.59763107 12.3535534,2.79289322 L16.6767767,7.11611652 C16.8720388,7.31137867 16.8720388,7.62796116 16.6767767,7.8232233 L16.3232233,8.1767767 C16.1279612,8.37203884 15.8113787,8.37203884 15.6161165,8.1767767 L12.75,5.31066017 L12.75,15.5 C12.75,15.7761424 12.5261424,16 12.25,16 L11.75,16 C11.4738576,16 11.25,15.7761424 11.25,15.5 L11.25,5.31066017 Z M5,11 L5.5,11 C5.77614237,11 6,11.2238576 6,11.5 L6,20 L18,20 L18,11.5 C18,11.2238576 18.2238576,11 18.5,11 L19,11 C19.2761424,11 19.5,11.2238576 19.5,11.5 L19.5,21 C19.5,21.2761424 19.2761424,21.5 19,21.5 L5,21.5 C4.72385763,21.5 4.5,21.2761424 4.5,21 L4.5,11.5 C4.5,11.2238576 4.72385763,11 5,11 Z" id="Combined-Shape"></path>
                </g>
            </g>
        </g>
    </g>
</svg>