<?xml version="1.0" encoding="UTF-8"?>
<svg width="24px" height="24px" viewBox="0 0 24 24" version="1.1" xmlns="http://www.w3.org/2000/svg" xmlns:xlink="http://www.w3.org/1999/xlink">
    <!-- Generator: Sketch 52.5 (67469) - http://www.bohemiancoding.com/sketch -->
    <title>ic_menu_search_black_24dp</title>
    <desc>Created with Sketch.</desc>
    <g id="iOS" stroke="none" stroke-width="1" fill="none" fill-rule="evenodd" fill-opacity="0.87">
        <g id="Экран-платежей" transform="translate(-337.000000, -30.000000)" fill="#000000" fill-rule="nonzero">
            <g id="NavBar-/-Big-/-Simple">
                <g id="ic_right" transform="translate(337.000000, 30.000000)">
                    <path d="M15.59601,14.5353498 L20.1767767,19.1161165 C20.3720388,19.3113787 20.3720388,19.6279612 20.1767767,19.8232233 L19.8232233,20.1767767 C19.6279612,20.3720388 19.3113787,20.3720388 19.1161165,20.1767767 L14.5353498,15.59601 C13.426768,16.4750413 12.0246893,17 10.5,17 C6.91014913,17 4,14.0898509 4,10.5 C4,6.91014913 6.91014913,4 10.5,4 C14.0898509,4 17,6.91014913 17,10.5 C17,12.0246893 16.4750413,13.426768 15.59601,14.5353498 Z M10.5,15.5 C13.2614237,15.5 15.5,13.2614237 15.5,10.5 C15.5,7.73857625 13.2614237,5.5 10.5,5.5 C7.73857625,5.5 5.5,7.73857625 5.5,10.5 C5.5,13.2614237 7.73857625,15.5 10.5,15.5 Z" id="Combined-Shape"></path>
                </g>
            </g>
        </g>
    </g>
</svg>