<?xml version="1.0" encoding="UTF-8"?>
<svg width="25px" height="24px" viewBox="0 0 25 24" version="1.1" xmlns="http://www.w3.org/2000/svg" xmlns:xlink="http://www.w3.org/1999/xlink">
    <!-- Generator: Sketch 52.5 (67469) - http://www.bohemiancoding.com/sketch -->
    <title>ic_menu_feed_grey_24dp</title>
    <desc>Created with Sketch.</desc>
    <g id="iOS" stroke="none" stroke-width="1" fill="none" fill-rule="evenodd" fill-opacity="0.28">
        <g id="Экран-платежей" transform="translate(-175.000000, -624.000000)" fill="#000000">
            <g id="Tab-Bar-/-2" transform="translate(0.000000, 618.000000)">
                <g id="Tab" transform="translate(150.000000, 0.000000)">
                    <g id="Третий" transform="translate(25.500000, 6.000000)">
                        <path d="M4,4.50020972 C4,4.22395152 4.22618103,4 4.4963932,4 L19.5036068,4 C19.7777572,4 20,4.22618103 20,4.4963932 L20,20 L22,22 L5.99508929,22 C4.8932319,22 4,21.1073772 4,20.0049107 L4,4.50020972 Z M8,8.50783157 L8,8.99216843 C8,9.27866983 8.22405275,9.5 8.50043583,9.5 L15.4995642,9.5 C15.7692032,9.5 16,9.27263606 16,8.99216843 L16,8.50783157 C16,8.22133017 15.7759472,8 15.4995642,8 L8.50043583,8 C8.23079681,8 8,8.22736394 8,8.50783157 Z M8,12.5078316 L8,12.9921684 C8,13.2786698 8.22405275,13.5 8.50043583,13.5 L15.4995642,13.5 C15.7692032,13.5 16,13.2726361 16,12.9921684 L16,12.5078316 C16,12.2213302 15.7759472,12 15.4995642,12 L8.50043583,12 C8.23079681,12 8,12.2273639 8,12.5078316 Z M8,16.5078316 L8,16.9921684 C8,17.2786698 8.22405275,17.5 8.50043583,17.5 L15.4995642,17.5 C15.7692032,17.5 16,17.2726361 16,16.9921684 L16,16.5078316 C16,16.2213302 15.7759472,16 15.4995642,16 L8.50043583,16 C8.23079681,16 8,16.2273639 8,16.5078316 Z" id="feed"></path>
                    </g>
                </g>
            </g>
        </g>
    </g>
</svg>