<?xml version="1.0" encoding="UTF-8"?>
<svg width="800px" height="800px" viewBox="0 0 800 800" version="1.1" xmlns="http://www.w3.org/2000/svg" xmlns:xlink="http://www.w3.org/1999/xlink">
    <!-- Generator: Sketch 61.2 (89653) - https://sketch.com -->
    <title>town</title>
    <desc>Created with Sketch.</desc>
    <g id="Page-1" stroke="none" stroke-width="1" fill="none" fill-rule="evenodd">
        <g id="town">
            <g id="Layer_1" transform="translate(123.000000, 83.000000)" opacity="0.2" stroke="#FFFFFF" stroke-width="2">
                <g id="Group" transform="translate(27.000000, 226.000000)">
                    <path d="M510.8,27.8 C510.8,167.9 396.6,281.4 255.7,281.4 C114.8,281.4 0.6,167.8 0.6,27.8" id="Path"></path>
                </g>
            </g>
            <path d="M440.229954,379.814896 L412.081123,384.995518 C407.481641,385.920629 404.353993,390.361162 405.08991,394.986717 C406.009807,399.612272 410.42531,402.75765 415.024792,402.017561 L443.173623,396.836939 C449.796877,395.541784 454.028401,399.612272 455.684215,403.867783 C457.340028,408.123294 456.97207,413.858982 451.268712,417.559426 L409.873372,444.572668 C406.009807,447.162979 401.410325,447.162979 397.36278,445.127735 C393.315236,442.907468 390.923505,438.83698 390.923505,434.211425 L390.923505,367.788453 C390.923505,356.68712 385.220147,347.065966 375.469245,341.700322 C365.902322,336.334678 354.495606,336.889744 345.296642,342.810455 L241.164365,410.713605 C229.389691,418.299515 224.974188,432.17618 230.125608,445.312757 C235.277028,458.449334 247.971599,465.480178 261.770046,463.074889 L352.655814,446.607913 C357.255296,445.682802 360.382944,441.242269 359.647027,436.616713 C358.72713,431.991158 354.311627,428.845781 349.712145,429.58587 L258.826377,446.052846 C252.019143,447.348001 247.971599,443.277513 246.315785,439.022002 C244.659972,434.766491 245.02793,429.030803 250.731288,425.330359 L354.863565,357.427209 C358.72713,354.836898 363.326612,354.836898 367.374157,356.872142 C371.421701,359.092409 373.813432,363.162898 373.813432,367.788453 L373.813432,434.211425 C373.813432,445.312757 379.51679,454.933912 389.267692,460.299556 C393.683195,462.704845 398.650635,464 403.434097,464 C408.953476,464 414.472854,462.3348 419.440295,459.189423 L460.835635,432.17618 C472.610309,424.59027 477.025812,410.713605 471.874392,397.577028 C466.722972,384.440451 454.028401,377.409607 440.229954,379.814896 Z M585.864945,397.577093 C580.681015,384.440529 567.906331,377.409692 554.020805,379.814978 L525.694332,384.995595 C521.065824,385.920705 517.918438,390.361233 518.658999,394.986784 C519.584701,399.612335 524.028069,402.757709 528.656578,402.017621 L556.983051,396.837004 C563.648103,395.54185 567.906331,399.612335 569.572595,403.867841 C571.238858,408.123348 570.868577,413.859031 565.129226,417.559471 L523.472648,444.572687 C519.584701,447.162996 514.956192,447.162996 510.883105,445.127753 C506.810017,442.907489 504.403193,438.837004 504.403193,434.211454 L504.403193,346.696035 C504.403193,341.885463 500.515245,338 495.701596,338 C490.887947,338 487,341.885463 487,346.696035 L487,434.211454 C487,445.312775 492.739351,454.933921 502.551789,460.299559 C506.995157,462.704846 511.993947,464 516.807596,464 C522.361806,464 527.916017,462.334802 532.914806,459.189427 L574.571384,432.176211 C586.605506,424.405286 591.048875,410.528634 585.864945,397.577093 Z" id="Shape" fill="#00C150" fill-rule="nonzero"></path>
        </g>
    </g>
</svg>