<?xml version="1.0" encoding="UTF-8"?>
<svg width="800px" height="800px" viewBox="0 0 800 800" version="1.1" xmlns="http://www.w3.org/2000/svg" xmlns:xlink="http://www.w3.org/1999/xlink">
    <!-- Generator: Sketch 61.2 (89653) - https://sketch.com -->
    <title>town</title>
    <desc>Created with Sketch.</desc>
    <g id="Page-1" stroke="none" stroke-width="1" fill="none" fill-rule="evenodd">
        <g id="town">
            <g id="Layer_1" transform="translate(123.000000, 83.000000)" opacity="0.2" stroke="#FFFFFF" stroke-width="2">
                <g id="Group" transform="translate(27.000000, 226.000000)">
                    <path d="M510.8,27.8 C510.8,167.9 396.6,281.4 255.7,281.4 C114.8,281.4 0.6,167.8 0.6,27.8" id="Path"></path>
                </g>
            </g>
            <path d="M439.229954,409.814896 L411.081123,414.995518 C406.481641,415.920629 403.353993,420.361162 404.08991,424.986717 C405.009807,429.612272 409.42531,432.75765 414.024792,432.017561 L442.173623,426.836939 C448.796877,425.541784 453.028401,429.612272 454.684215,433.867783 C456.340028,438.123294 455.97207,443.858982 450.268712,447.559426 L408.873372,474.572668 C405.009807,477.162979 400.410325,477.162979 396.36278,475.127735 C392.315236,472.907468 389.923505,468.83698 389.923505,464.211425 L389.923505,397.788453 C389.923505,386.68712 384.220147,377.065966 374.469245,371.700322 C364.902322,366.334678 353.495606,366.889744 344.296642,372.810455 L240.164365,440.713605 C228.389691,448.299515 223.974188,462.17618 229.125608,475.312757 C234.277028,488.449334 246.971599,495.480178 260.770046,493.074889 L351.655814,476.607913 C356.255296,475.682802 359.382944,471.242269 358.647027,466.616713 C357.72713,461.991158 353.311627,458.845781 348.712145,459.58587 L257.826377,476.052846 C251.019143,477.348001 246.971599,473.277513 245.315785,469.022002 C243.659972,464.766491 244.02793,459.030803 249.731288,455.330359 L353.863565,387.427209 C357.72713,384.836898 362.326612,384.836898 366.374157,386.872142 C370.421701,389.092409 372.813432,393.162898 372.813432,397.788453 L372.813432,464.211425 C372.813432,475.312757 378.51679,484.933912 388.267692,490.299556 C392.683195,492.704845 397.650635,494 402.434097,494 C407.953476,494 413.472854,492.3348 418.440295,489.189423 L459.835635,462.17618 C471.610309,454.59027 476.025812,440.713605 470.874392,427.577028 C465.722972,414.440451 453.028401,407.409607 439.229954,409.814896 Z M584.864945,427.577093 C579.681015,414.440529 566.906331,407.409692 553.020805,409.814978 L524.694332,414.995595 C520.065824,415.920705 516.918438,420.361233 517.658999,424.986784 C518.584701,429.612335 523.028069,432.757709 527.656578,432.017621 L555.983051,426.837004 C562.648103,425.54185 566.906331,429.612335 568.572595,433.867841 C570.238858,438.123348 569.868577,443.859031 564.129226,447.559471 L522.472648,474.572687 C518.584701,477.162996 513.956192,477.162996 509.883105,475.127753 C505.810017,472.907489 503.403193,468.837004 503.403193,464.211454 L503.403193,376.696035 C503.403193,371.885463 499.515245,368 494.701596,368 C489.887947,368 486,371.885463 486,376.696035 L486,464.211454 C486,475.312775 491.739351,484.933921 501.551789,490.299559 C505.995157,492.704846 510.993947,494 515.807596,494 C521.361806,494 526.916017,492.334802 531.914806,489.189427 L573.571384,462.176211 C585.605506,454.405286 590.048875,440.528634 584.864945,427.577093 Z" id="Shape" fill="#009B3A" fill-rule="nonzero"></path>
        </g>
    </g>
</svg>