<?xml version="1.0" encoding="UTF-8"?>
<svg width="89px" height="32px" viewBox="0 0 89 32" version="1.1" xmlns="http://www.w3.org/2000/svg" xmlns:xlink="http://www.w3.org/1999/xlink">
    <!-- Generator: Sketch 61.2 (89653) - https://sketch.com -->
    <title>Shape</title>
    <desc>Created with Sketch.</desc>
    <g id="insp" stroke="none" stroke-width="1" fill="none" fill-rule="evenodd">
        <g id="1280x1024" transform="translate(-171.000000, -226.000000)" fill="#009B3A" fill-rule="nonzero">
            <g id="ABB_Logo_Horizontal_RGB" transform="translate(100.000000, 226.000000)">
                <g id="Group">
                    <path d="M123.454545,10.7885714 L116.5,12.0685714 C115.363636,12.2971429 114.590909,13.3942857 114.772727,14.5371429 C115,15.68 116.090909,16.4571429 117.227273,16.2742857 L124.181818,14.9942857 C125.818182,14.6742857 126.863636,15.68 127.272727,16.7314286 C127.681818,17.7828571 127.590909,19.2 126.181818,20.1142857 L115.954545,26.7885714 C115,27.4285714 113.863636,27.4285714 112.863636,26.9257143 C111.863636,26.3771429 111.272727,25.3714286 111.272727,24.2285714 L111.272727,7.81714286 C111.272727,5.07428571 109.863636,2.69714286 107.454545,1.37142857 C105.090909,0.0457142857 102.272727,0.182857143 100,1.64571429 L74.2727273,18.4228571 C71.3636364,20.2971429 70.2727273,23.7257143 71.5454545,26.9714286 C72.8181818,30.2171429 75.9545455,31.9542857 79.3636364,31.36 L101.818182,27.2914286 C102.954545,27.0628571 103.727273,25.9657143 103.545455,24.8228571 C103.318182,23.68 102.227273,22.9028571 101.090909,23.0857143 L78.6363636,27.1542857 C76.9545455,27.4742857 75.9545455,26.4685714 75.5454545,25.4171429 C75.1363636,24.3657143 75.2272727,22.9485714 76.6363636,22.0342857 L102.363636,5.25714286 C103.318182,4.61714286 104.454545,4.61714286 105.454545,5.12 C106.454545,5.66857143 107.045455,6.67428571 107.045455,7.81714286 L107.045455,24.2285714 C107.045455,26.9714286 108.454545,29.3485714 110.863636,30.6742857 C111.954545,31.2685714 113.181818,31.5885714 114.363636,31.5885714 C115.727273,31.5885714 117.090909,31.1771429 118.318182,30.4 L128.545455,23.7257143 C131.454545,21.8514286 132.545455,18.4228571 131.272727,15.1771429 C130,11.9314286 126.863636,10.1942857 123.454545,10.7885714 Z M159.454545,15.1771429 C158.181818,11.9314286 155.045455,10.1942857 151.636364,10.7885714 L144.681818,12.0685714 C143.545455,12.2971429 142.772727,13.3942857 142.954545,14.5371429 C143.181818,15.68 144.272727,16.4571429 145.409091,16.2742857 L152.363636,14.9942857 C154,14.6742857 155.045455,15.68 155.454545,16.7314286 C155.863636,17.7828571 155.772727,19.2 154.363636,20.1142857 L144.136364,26.7885714 C143.181818,27.4285714 142.045455,27.4285714 141.045455,26.9257143 C140.045455,26.3771429 139.454545,25.3714286 139.454545,24.2285714 L139.454545,2.60571429 C139.454545,1.41714286 138.5,0.457142857 137.318182,0.457142857 C136.136364,0.457142857 135.181818,1.41714286 135.181818,2.60571429 L135.181818,24.2285714 C135.181818,26.9714286 136.590909,29.3485714 139,30.6742857 C140.090909,31.2685714 141.318182,31.5885714 142.5,31.5885714 C143.863636,31.5885714 145.227273,31.1771429 146.454545,30.4 L156.681818,23.7257143 C159.636364,21.8057143 160.727273,18.3771429 159.454545,15.1771429 Z" id="Shape"></path>
                </g>
            </g>
        </g>
    </g>
</svg>