<?xml version="1.0" encoding="UTF-8"?>
<svg width="24px" height="24px" viewBox="0 0 24 24" version="1.1" xmlns="http://www.w3.org/2000/svg" xmlns:xlink="http://www.w3.org/1999/xlink">
    <!-- Generator: Sketch 52.2 (67145) - http://www.bohemiancoding.com/sketch -->
    <title>ic_menu_cancel_black_24dp</title>
    <desc>Created with Sketch.</desc>
    <g id="iOS" stroke="none" stroke-width="1" fill="none" fill-rule="evenodd" fill-opacity="0.87">
        <g id="set_pin" transform="translate(-16.000000, -30.000000)" fill="#000000" fill-rule="nonzero">
            <g id="Burger" transform="translate(16.000000, 30.000000)">
                <path d="M13.0606602,12 L19.6767767,18.6161165 C19.8720388,18.8113787 19.8720388,19.1279612 19.6767767,19.3232233 L19.3232233,19.6767767 C19.1279612,19.8720388 18.8113787,19.8720388 18.6161165,19.6767767 L12,13.0606602 L5.38388348,19.6767767 C5.18862133,19.8720388 4.87203884,19.8720388 4.6767767,19.6767767 L4.3232233,19.3232233 C4.12796116,19.1279612 4.12796116,18.8113787 4.3232233,18.6161165 L10.9393398,12 L4.3232233,5.38388348 C4.12796116,5.18862133 4.12796116,4.87203884 4.3232233,4.6767767 L4.6767767,4.3232233 C4.87203884,4.12796116 5.18862133,4.12796116 5.38388348,4.3232233 L12,10.9393398 L18.6161165,4.3232233 C18.8113787,4.12796116 19.1279612,4.12796116 19.3232233,4.3232233 L19.6767767,4.6767767 C19.8720388,4.87203884 19.8720388,5.18862133 19.6767767,5.38388348 L13.0606602,12 Z" id="cancel"></path>
            </g>
        </g>
    </g>
</svg>