<?xml version="1.0" encoding="UTF-8"?>
<svg width="43px" height="32px" viewBox="0 0 43 32" version="1.1" xmlns="http://www.w3.org/2000/svg" xmlns:xlink="http://www.w3.org/1999/xlink">
    <!-- Generator: Sketch 52.2 (67145) - http://www.bohemiancoding.com/sketch -->
    <title>ic_card_visa_white_32dp</title>
    <desc>Created with Sketch.</desc>
    <g id="Android" stroke="none" stroke-width="1" fill="none" fill-rule="evenodd">
        <g id="card" transform="translate(-110.000000, -133.000000)" fill="#FFFFFF">
            <g id="Group-7">
                <g id="card-1" transform="translate(98.000000, 122.000000)">
                    <g id="Card-/-Maestro-/-White" transform="translate(12.000000, 11.000000)">
                        <path d="M21.9607616,18.0277598 C21.9380174,16.2475178 23.5588403,15.2540048 24.7798443,14.6633638 C26.0343661,14.0572734 26.4557321,13.6686624 26.4509439,13.1267463 C26.4413674,12.2972343 25.4501994,11.9312032 24.5224758,11.9169423 C22.904047,11.8919856 21.9631557,12.3507129 21.2149915,12.6977294 L20.6320219,9.98933708 C21.3825803,9.64588584 22.7723701,9.34640587 24.2136336,9.33333333 C27.5965329,9.33333333 29.8099019,10.9911689 29.8218726,13.5617053 C29.8350403,16.8238979 25.2766253,17.0045366 25.307749,18.4627188 C25.3185225,18.9048083 25.7434798,19.3766081 26.6747946,19.4966378 C27.1356638,19.5572468 28.4081415,19.6035949 29.8506021,18.9440259 L30.4168127,21.5644757 C29.6411161,21.844941 28.6439628,22.1135223 27.4026088,22.1135223 C24.2184219,22.1135223 21.9787175,20.4331069 21.9607616,18.0277598 M35.8574629,21.8877239 C35.2397785,21.8877239 34.7190562,21.5300117 34.4868261,20.9809651 L29.6542838,9.52585617 L33.034789,9.52585617 L33.7075382,11.3714609 L37.8386017,11.3714609 L38.2288442,9.52585617 L41.2083333,9.52585617 L38.6083131,21.8877239 L35.8574629,21.8877239 M36.3303027,18.5482845 L37.3059088,13.906345 L34.6340648,13.906345 L36.3303027,18.5482845 M17.8620187,21.8877239 L15.1973571,9.52585617 L18.4186529,9.52585617 L21.0821175,21.8877239 L17.8620187,21.8877239 M13.096512,21.8877239 L9.74353924,13.4737628 L8.38726716,20.6280066 C8.22805781,21.4266198 7.59959987,21.8877239 6.9017123,21.8877239 L1.42036202,21.8877239 L1.34375,21.5288233 C2.46898897,21.2863871 3.74745198,20.8953994 4.52195157,20.4770782 C4.99598842,20.2215694 5.13125651,19.9981479 5.28687466,19.390869 L7.8557713,9.52585617 L11.2602177,9.52585617 L16.4794113,21.8877239 L13.096512,21.8877239" id="path10273" transform="translate(21.276042, 15.723428) scale(1, -1) translate(-21.276042, -15.723428) "></path>
                    </g>
                </g>
            </g>
        </g>
    </g>
</svg>