<?xml version="1.0" encoding="UTF-8"?>
<svg width="16px" height="16px" viewBox="0 0 16 16" version="1.1" xmlns="http://www.w3.org/2000/svg" xmlns:xlink="http://www.w3.org/1999/xlink">
    <!-- Generator: Sketch 52.2 (67145) - http://www.bohemiancoding.com/sketch -->
    <title>ic_edit_16dp</title>
    <desc>Created with Sketch.</desc>
    <g id="Android" stroke="none" stroke-width="1" fill="none" fill-rule="evenodd" fill-opacity="0.28">
        <g id="card" transform="translate(-224.000000, -248.000000)" fill="#000000" fill-rule="nonzero">
            <g id="Group-7">
                <g id="Group-3" transform="translate(121.000000, 246.000000)">
                    <g id="Group-2">
                        <g id="Group">
                            <g id="Group-4" transform="translate(103.000000, 2.000000)">
                                <path d="M4.66421356,11.7482565 L8.90685425,7.50561585 L7.49264069,6.09140228 L3.25,10.334043 L3.25,11.7482565 L4.66421356,11.7482565 Z M5.18198052,12.9982565 L2,12.9982565 L2,9.81627602 L7.49264069,4.32363533 L10.6746212,7.50561585 L5.18198052,12.9982565 Z M8.37693619,5.20710678 L9.79114975,6.62132034 L10.8518099,5.56066017 C11.0470721,5.36539803 11.0470721,5.04881554 10.8518099,4.85355339 L10.1447031,4.14644661 C9.949441,3.95118446 9.63285851,3.95118446 9.43759636,4.14644661 L8.37693619,5.20710678 Z M6.60916924,5.20710678 L8.55371289,3.26256313 C9.2371304,2.57914562 10.3451691,2.57914562 11.0285866,3.26256313 L11.7356934,3.96966991 C12.4191109,4.65308742 12.4191109,5.76112614 11.7356934,6.44454365 L9.79114975,8.3890873 L6.60916924,5.20710678 Z M8.5,11.75 L12.5,11.75 C12.7761424,11.75 13,11.9738576 13,12.25 L13,12.5 C13,12.7761424 12.7761424,13 12.5,13 L8.5,13 C8.22385763,13 8,12.7761424 8,12.5 L8,12.25 C8,11.9738576 8.22385763,11.75 8.5,11.75 Z" id="Combined-Shape"></path>
                            </g>
                        </g>
                    </g>
                </g>
            </g>
        </g>
    </g>
</svg>