<?xml version="1.0" encoding="UTF-8"?>
<svg width="24px" height="24px" viewBox="0 0 24 24" version="1.1" xmlns="http://www.w3.org/2000/svg" xmlns:xlink="http://www.w3.org/1999/xlink">
    <!-- Generator: Sketch 52.2 (67145) - http://www.bohemiancoding.com/sketch -->
    <title>ic_menu_edit_black_24dp</title>
    <desc>Created with Sketch.</desc>
    <g id="iOS" stroke="none" stroke-width="1" fill="none" fill-rule="evenodd" fill-opacity="0.56">
        <g id="card" transform="translate(-24.000000, -648.000000)" fill="#000000">
            <g id="Group-7" transform="translate(0.000000, 328.000000)">
                <g id="Row-/-Single-Image-/-Normal-Copy" transform="translate(0.000000, 300.000000)">
                    <g id="Иконка" transform="translate(16.000000, 12.000000)">
                        <g id="Group" transform="translate(8.000000, 8.000000)">
                            <path d="M16.5929688,9.34517045 C16.5929688,10.6775568 15.628125,11.5724432 14.1960938,11.5724432 L10.9460937,11.5724432 L10.9460937,7.11789773 L14.1960938,7.11789773 C15.628125,7.11789773 16.5929688,8.01278409 16.5929688,9.34517045 L16.5929688,9.34517045 Z M19,9.34517045 C19,6.78977273 17.1109375,5 14.3992188,5 L8.925,5 C8.7421875,5 8.6,5.13920455 8.6,5.31818182 L8.6,11.5724432 L6.325,11.5724432 C6.1421875,11.5724432 6,11.7116477 6,11.890625 L6,13.3721591 C6,13.5511364 6.1421875,13.6903409 6.325,13.6903409 L8.6,13.6903409 L8.6,14.8636364 L6.325,14.8636364 C6.1421875,14.8636364 6,15.0028409 6,15.1818182 L6,16.4545455 C6,16.6335227 6.1421875,16.7727273 6.325,16.7727273 L8.6,16.7727273 L8.6,18.6818182 C8.6,18.8607955 8.7421875,19 8.925,19 L10.6210938,19 C10.8039063,19 10.9460937,18.8607955 10.9460937,18.6818182 L10.9460937,16.7727273 L16.075,16.7727273 C16.2578125,16.7727273 16.4,16.6335227 16.4,16.4545455 L16.4,15.1818182 C16.4,15.0028409 16.2578125,14.8636364 16.075,14.8636364 L10.9460937,14.8636364 L10.9460937,13.6903409 L14.3992188,13.6903409 C17.1109375,13.6903409 19,11.9005682 19,9.34517045 L19,9.34517045 Z" id="fa-rub"></path>
                        </g>
                    </g>
                </g>
            </g>
        </g>
    </g>
</svg>