<?xml version="1.0" encoding="UTF-8"?>
<svg width="24px" height="24px" viewBox="0 0 24 24" version="1.1" xmlns="http://www.w3.org/2000/svg" xmlns:xlink="http://www.w3.org/1999/xlink">
    <!-- Generator: Sketch 52.2 (67145) - http://www.bohemiancoding.com/sketch -->
    <title>ic_menu_info_black_24dp</title>
    <desc>Created with Sketch.</desc>
    <g id="Two" stroke="none" stroke-width="1" fill="none" fill-rule="evenodd" fill-opacity="0.87">
        <g id="cashback_tansport_norm" transform="translate(-337.000000, -30.000000)" fill="#000000" fill-rule="nonzero">
            <g id="NavBar-/-Big-/-Simple">
                <g id="ic_right" transform="translate(337.000000, 30.000000)">
                    <path d="M12,23 C5.92486775,23 1,18.0751322 1,12 C1,5.92486775 5.92486775,1 12,1 C18.0751322,1 23,5.92486775 23,12 C23,18.0751322 18.0751322,23 12,23 Z M12,21.5 C17.2467051,21.5 21.5,17.2467051 21.5,12 C21.5,6.75329488 17.2467051,2.5 12,2.5 C6.75329488,2.5 2.5,6.75329488 2.5,12 C2.5,17.2467051 6.75329488,21.5 12,21.5 Z M12.75,13.5 C12.75,13.9142136 12.4142136,14.25 12,14.25 C11.5857864,14.25 11.25,13.9142136 11.25,13.5 C11.25,12.1914311 11.7108448,11.4387178 12.7482765,10.5050294 C12.8547412,10.4096034 12.8547412,10.4096034 12.9557524,10.3190726 C13.5694592,9.76673653 13.75,9.48818785 13.75,9 C13.75,7.78125 13.0416667,7.25 12,7.25 C10.9583333,7.25 10.25,7.78125 10.25,9 C10.25,9.41421356 9.91421356,9.75 9.5,9.75 C9.08578644,9.75 8.75,9.41421356 8.75,9 C8.75,6.84375 10.2083333,5.75 12,5.75 C13.7916667,5.75 15.25,6.84375 15.25,9 C15.25,10.0215123 14.8598961,10.6233869 13.9591995,11.4340138 C13.8535922,11.5286682 13.8535922,11.5286682 13.7517235,11.6199706 C12.9993824,12.2970776 12.75,12.7044023 12.75,13.5 Z M11.9999939,17.7 C11.3924807,17.7 10.8999939,17.2075133 10.8999939,16.6 C10.8999939,15.9924868 11.3924807,15.5 11.9999939,15.5 C12.6075072,15.5 13.0999939,15.9924868 13.0999939,16.6 C13.0999939,17.2075133 12.6075072,17.7 11.9999939,17.7 Z" id="Combined-Shape"></path>
                </g>
            </g>
        </g>
    </g>
</svg>