<?xml version="1.0" encoding="UTF-8"?>
<svg width="68px" height="82px" viewBox="0 0 68 82" version="1.1" xmlns="http://www.w3.org/2000/svg" xmlns:xlink="http://www.w3.org/1999/xlink">
    <!-- Generator: Sketch 52.2 (67145) - http://www.bohemiancoding.com/sketch -->
    <title>logo</title>
    <desc>Created with Sketch.</desc>
    <g id="Page-1" stroke="none" stroke-width="1" fill="none" fill-rule="evenodd">
        <g id="main" transform="translate(-100.000000, -5.000000)">
            <g id="logo" transform="translate(100.000000, 5.000000)">
                <g id="Group-18">
                    <path d="M6.00330544,81.9036674 C22.2286349,71.3463749 30.3224338,57.6896871 17.2840065,37.7623733 C5.83066526,23.2454644 0.883545157,9.95264692 20.2441627,2.84217094e-14 C0.883545157,9.95264692 2.09167047,23.3032216 14.0234208,37.6677959 C27.0618481,57.5965536 22.2286349,71.3463749 6.00330544,81.9036674 Z" id="Fill-1" fill="#F27E00"></path>
                    <path d="M2.94065657,49.7733051 L0.0858585859,49.7733051 L0.236111111,45.6038136 L0.107323232,39.8707627 L2.96212121,39.6318856 L2.79040404,45.3215042 L2.94065657,49.7733051 Z M1.60984848,34.7240466 C2.0534534,34.7240466 2.40046171,34.8543419 2.65088384,35.1149364 C2.90130597,35.375531 3.02651515,35.7374624 3.02651515,36.2007415 C3.02651515,36.6929756 2.88699634,37.0838615 2.60795455,37.373411 C2.32891275,37.6629605 1.95328519,37.8077331 1.48106061,37.8077331 C1.02314586,37.8077331 0.668982734,37.6774377 0.418560606,37.4168432 C0.168138479,37.1562487 0.0429292929,36.7943173 0.0429292929,36.3310381 C0.0429292929,35.838804 0.1824481,35.4479181 0.461489899,35.1583686 C0.740531698,34.8688192 1.12331407,34.7240466 1.60984848,34.7240466 Z M35.2234848,38.220339 L32.6262626,38.0900424 L31.7676768,38.0900424 L31.6603535,45.3432203 L31.7891414,49.7733051 L28.8699495,49.7733051 L29.020202,45.6038136 L28.9128788,38.0900424 L28.0542929,38.0900424 L25.4141414,38.220339 L25.2209596,37.9814619 L25.4141414,35.7881356 L35.2234848,35.7881356 L35.395202,36.0270127 L35.2234848,38.220339 Z M44.3459596,49.7733051 L44.0025253,47.9491525 L43.6376263,46.6461864 L40.9330808,46.5810381 L38.5505051,46.6461864 L38.1856061,47.7971398 L37.8207071,49.7733051 L34.9444444,49.7733051 L39.6237374,35.7881356 L43.0795455,35.7881356 L47.3080808,49.7733051 L44.3459596,49.7733051 Z M41.3838384,38.5460805 L41.1906566,38.5460805 L39.3017677,44.3659958 L41.1477273,44.409428 L43.0151515,44.3659958 L41.3838384,38.5460805 Z M52.3522727,41.9120763 L54.2840909,41.9337924 L56.6237374,41.8686441 L56.8169192,42.0858051 L56.6022727,44.2791314 L54.0479798,44.2139831 L52.3093434,44.2356992 L52.2878788,45.3432203 L52.4166667,49.7733051 L49.4974747,49.7733051 L49.6477273,45.6038136 L49.4974747,35.7881356 L57.7184343,35.7881356 L57.8901515,36.0270127 L57.6755051,38.2420551 L54.3914141,38.1117585 L52.4166667,38.1334746 L52.3522727,41.9120763 Z M62.3118687,41.9120763 L64.2436869,41.9337924 L66.5833333,41.8686441 L66.7765152,42.0858051 L66.5618687,44.2791314 L64.0075758,44.2139831 L62.2689394,44.2356992 L62.2474747,45.3432203 L62.3762626,49.7733051 L59.4570707,49.7733051 L59.6073232,45.6038136 L59.4570707,35.7881356 L67.6780303,35.7881356 L67.8497475,36.0270127 L67.635101,38.2420551 L64.3510101,38.1117585 L62.3762626,38.1334746 L62.3118687,41.9120763 Z" id="i-TAFF" fill="#FFFFFF"></path>
                </g>
            </g>
        </g>
    </g>
</svg>