<?xml version="1.0" encoding="UTF-8"?>
<svg width="160px" height="208px" viewBox="0 0 160 208" version="1.1" xmlns="http://www.w3.org/2000/svg" xmlns:xlink="http://www.w3.org/1999/xlink">
    <!-- Generator: Sketch 56.3 (81716) - https://sketch.com -->
    <title>ВУ</title>
    <desc>Created with Sketch.</desc>
    <defs>
        <rect id="path-1" x="0" y="0" width="159.512195" height="98.7804878" rx="8.7804878"></rect>
        <linearGradient x1="0%" y1="30.8254777%" x2="100%" y2="69.1745223%" id="linearGradient-3">
            <stop stop-color="#C9E4FA" offset="0%"></stop>
            <stop stop-color="#FFC7E3" offset="100%"></stop>
        </linearGradient>
        <rect id="path-4" x="0" y="0" width="159.512195" height="98.7804878" rx="8.7804878"></rect>
    </defs>
    <g id="Desktop" stroke="none" stroke-width="1" fill="none" fill-rule="evenodd">
        <g id="Поиск-штрафов-по-ВУ-и-СТС" transform="translate(-608.000000, -257.000000)">
            <g id="ВУ" transform="translate(608.000000, 257.000000)">
                <g id="Bitmap">
                    <mask id="mask-2" fill="white">
                        <use xlink:href="#path-1"></use>
                    </mask>
                    <use id="Mask" fill="#F2F2F2" xlink:href="#path-1"></use>
                    <polygon id="Polygon" fill="#CCCCCC" mask="url(#mask-2)" transform="translate(80.621717, 82.183161) rotate(30.000000) translate(-80.621717, -82.183161) " points="80.6217166 71.939259 89.4931964 77.0612102 89.4931964 87.3051127 80.6217166 92.4270639 71.7502369 87.3051127 71.7502369 77.0612102"></polygon>
                    <path d="M34.3902439,36.8292683 C21.6,36.8292683 11.2195122,47.2097561 11.2195122,60 C11.2195122,72.7902439 21.6,83.1707317 34.3902439,83.1707317 C47.1804878,83.1707317 57.5609756,72.7902439 57.5609756,60 C57.5609756,47.2097561 47.1804878,36.8292683 34.3902439,36.8292683 Z M34.3902439,43.7804878 C38.2365854,43.7804878 41.3414634,46.8853659 41.3414634,50.7317073 C41.3414634,54.5780488 38.2365854,57.6829268 34.3902439,57.6829268 C30.5439024,57.6829268 27.4390244,54.5780488 27.4390244,50.7317073 C27.4390244,46.8853659 30.5439024,43.7804878 34.3902439,43.7804878 Z M34.3902439,76.6829268 C28.597561,76.6829268 23.4768293,73.7170732 20.4878049,69.2219512 C20.5573171,64.6109756 29.7560976,62.0853659 34.3902439,62.0853659 C39.0012195,62.0853659 48.2231707,64.6109756 48.2926829,69.2219512 C45.3036585,73.7170732 40.1829268,76.6829268 34.3902439,76.6829268 Z" id="Shape" fill="#CCCCCC" fill-rule="nonzero" mask="url(#mask-2)"></path>
                    <rect id="Rectangle" fill="#CCCCCC" mask="url(#mask-2)" x="18.2926829" y="10.2439024" width="32.9268293" height="3.65853659" rx="1.82926829"></rect>
                    <rect id="Rectangle" fill="#CCCCCC" mask="url(#mask-2)" x="20.4878049" y="16.097561" width="28.5365854" height="3.65853659" rx="1.82926829"></rect>
                    <rect id="Rectangle" fill="#CCCCCC" mask="url(#mask-2)" x="68.7804878" y="10.2439024" width="79.7560976" height="3.65853659" rx="1.82926829"></rect>
                    <rect id="Rectangle" fill="#CCCCCC" mask="url(#mask-2)" x="83.4146341" y="16.097561" width="49.7560976" height="3.65853659" rx="1.82926829"></rect>
                    <rect id="Rectangle" fill="#CCCCCC" mask="url(#mask-2)" x="107.560976" y="38.7804878" width="28.5365854" height="3.65853659" rx="1.82926829"></rect>
                    <rect id="Rectangle" fill="#CCCCCC" mask="url(#mask-2)" x="107.560976" y="57.0731707" width="42.4390244" height="3.65853659" rx="1.82926829"></rect>
                    <rect id="Rectangle" fill="#CCCCCC" mask="url(#mask-2)" x="107.560976" y="47.5609756" width="21.9512195" height="3.65853659" rx="1.82926829"></rect>
                    <rect id="Rectangle" fill="#CCCCCC" mask="url(#mask-2)" x="120.731707" y="62.9268293" width="15.3658537" height="3.65853659" rx="1.82926829"></rect>
                    <rect id="Rectangle" fill="#CCCCCC" mask="url(#mask-2)" x="125.121951" y="78.2926829" width="15.3658537" height="3.65853659" rx="1.82926829"></rect>
                    <rect id="Rectangle" fill="#CCCCCC" mask="url(#mask-2)" x="95.8536585" y="78.2926829" width="15.3658537" height="3.65853659" rx="1.82926829"></rect>
                    <rect id="Rectangle" fill="#CCCCCC" mask="url(#mask-2)" x="69.5121951" y="40.2439024" width="21.2195122" height="2.19512195" rx="1.09756098"></rect>
                    <rect id="Rectangle" fill="#CCCCCC" mask="url(#mask-2)" x="69.5121951" y="49.0243902" width="12.4390244" height="2.19512195" rx="1.09756098"></rect>
                    <rect id="Rectangle" fill="#CCCCCC" mask="url(#mask-2)" x="95.8536585" y="73.1707317" width="21.2195122" height="2.19512195" rx="1.09756098"></rect>
                    <rect id="Rectangle" fill="#CCCCCC" mask="url(#mask-2)" x="95.8536585" y="85.6097561" width="13.902439" height="2.19512195" rx="1.09756098"></rect>
                    <rect id="Rectangle" fill="#CCCCCC" mask="url(#mask-2)" x="95.8536585" y="89.2682927" width="26.3414634" height="2.19512195" rx="1.09756098"></rect>
                    <rect id="Rectangle" fill="#CCCCCC" mask="url(#mask-2)" x="124.390244" y="73.1707317" width="21.2195122" height="2.19512195" rx="1.09756098"></rect>
                    <rect id="Rectangle" fill="#CCCCCC" mask="url(#mask-2)" x="69.5121951" y="58.5365854" width="20.4878049" height="2.19512195" rx="1.09756098"></rect>
                    <rect id="Rectangle" fill="#CCCCCC" mask="url(#mask-2)" x="69.5121951" y="63.6585366" width="46.8292683" height="2.19512195" rx="1.09756098"></rect>
                    <g id="Group-3" mask="url(#mask-2)">
                        <g transform="translate(63.658537, 21.951220)">
                            <rect id="Rectangle" stroke="#FF4732" stroke-width="0.569105691" fill="none" x="-0.284552846" y="-0.284552846" width="73.7398374" height="15.203252" rx="7.60162602"></rect>
                            <path d="M7.64183975,9.92682927 L7.64183975,5.74356898 L7.57681498,5.74356898 L6.29799447,6.63224085 L6.29799447,5.64964431 L7.64545224,4.7140101 L8.73281091,4.7140101 L8.73281091,9.92682927 L7.64183975,9.92682927 Z M10.1163935,6.29627954 C10.1163935,5.2811706 10.9111408,4.58034807 12.0526867,4.58034807 C13.1581079,4.58034807 13.8661554,5.21975832 13.8661554,6.09759273 C13.8661554,6.70810309 13.5988313,7.12715161 12.7318343,7.95079872 L11.6480882,8.98397008 L11.6480882,9.04899486 L13.9384051,9.04899486 L13.9384051,9.92682927 L10.1778058,9.92682927 L10.1778058,9.19349435 L12.0057244,7.42698806 C12.6559721,6.79480278 12.7968591,6.55637862 12.7968591,6.19512989 C12.7968591,5.76885639 12.5006352,5.42928258 11.9912745,5.42928258 C11.4602388,5.42928258 11.12789,5.78691883 11.12789,6.29627954 L10.1163935,6.29627954 Z M20.2999952,9.92682927 L19.9062341,8.66245871 L18.0747031,8.66245871 L17.673717,9.92682927 L16.5791333,9.92682927 L18.3889895,4.7140101 L19.6714224,4.7140101 L21.4812786,9.92682927 L20.2999952,9.92682927 Z M18.9633749,5.77246888 L18.3095147,7.84603659 L19.6750349,7.84603659 L19.0283997,5.77246888 L18.9633749,5.77246888 Z M24.7108422,9.92682927 L22.3699505,9.92682927 L22.3699505,4.7140101 L24.6494299,4.7140101 C25.6609264,4.7140101 26.2642118,5.20892086 26.2642118,6.01450553 C26.2642118,6.56721608 25.8560007,7.04767689 25.3213526,7.12715161 L25.3213526,7.19217638 C26.0113377,7.24636369 26.5134734,7.76294938 26.5134734,8.43487201 C26.5134734,9.35244379 25.8234883,9.92682927 24.7108422,9.92682927 Z M23.4609216,5.52320725 L23.4609216,6.88150248 L24.2809562,6.88150248 C24.8697917,6.88150248 25.191303,6.63585334 25.191303,6.20235487 C25.191303,5.77608136 24.8914666,5.52320725 24.3712684,5.52320725 L23.4609216,5.52320725 Z M23.4609216,9.11401963 L24.4326807,9.11401963 C25.0612535,9.11401963 25.4008273,8.84669557 25.4008273,8.34817232 C25.4008273,7.86048653 25.050416,7.60038745 24.4073933,7.60038745 L23.4609216,7.60038745 L23.4609216,9.11401963 Z M35.584429,7.27165111 C34.7896818,7.27165111 34.2189088,6.75867791 34.2189088,5.95309324 C34.2189088,5.15112106 34.7860693,4.63814787 35.584429,4.63814787 C36.3900137,4.63814787 36.9643991,5.14750857 36.9643991,5.95309324 C36.9643991,6.75867791 36.3900137,7.27165111 35.584429,7.27165111 Z M30.4510845,9.92682927 L29.4070757,9.92682927 L29.4070757,4.7140101 L30.3174225,4.7140101 L32.6077395,8.04472339 L32.6727642,8.04472339 L32.6727642,4.7140101 L33.7167731,4.7140101 L33.7167731,9.92682927 L32.8136512,9.92682927 L30.5161093,6.58166603 L30.4510845,6.58166603 L30.4510845,9.92682927 Z M35.584429,6.59972847 C35.9384527,6.59972847 36.1588145,6.34685436 36.1588145,5.95309324 C36.1588145,5.54849466 35.9456777,5.30645802 35.584429,5.30645802 C35.2376302,5.30645802 35.0244935,5.55210715 35.0244935,5.95309324 C35.0244935,6.34685436 35.2412427,6.59972847 35.584429,6.59972847 Z M36.8271246,8.4384845 L34.3561833,8.4384845 L34.3561833,7.6148374 L36.8271246,7.6148374 L36.8271246,8.4384845 Z M39.0162919,7.64012481 L39.0162919,6.86344004 L39.6665396,6.86344004 C40.1614504,6.86344004 40.4974117,6.5636036 40.4974117,6.13010512 C40.4974117,5.72911903 40.1903503,5.42205761 39.6809896,5.42205761 C39.1535664,5.42205761 38.8284426,5.69660664 38.7923177,6.17706745 L37.7844338,6.17706745 C37.8205586,5.2269833 38.5611185,4.58034807 39.7351769,4.58034807 C40.8911728,4.58034807 41.5341956,5.21975832 41.5305831,5.98199314 C41.5269706,6.61417842 41.129597,7.02600197 40.5696615,7.16688897 L40.5696615,7.23191374 C41.2957714,7.34028836 41.7364949,7.80268674 41.7364949,8.50350927 C41.7364949,9.41385607 40.8767229,10.0604913 39.699052,10.0604913 C38.5213812,10.0604913 37.719409,9.42108105 37.6724466,8.44570948 L38.7164555,8.44570948 C38.7489679,8.89727039 39.1246665,9.18265689 39.6846021,9.18265689 C40.2373126,9.18265689 40.6238488,8.87198298 40.6238488,8.41319709 C40.6238488,7.93634877 40.2626,7.64012481 39.6773771,7.64012481 L39.0162919,7.64012481 Z M45.1430704,9.92682927 L45.1430704,8.96952013 L42.5926543,8.96952013 L42.5926543,8.11336065 C43.250127,6.93930227 43.9581745,5.78330634 44.6553846,4.7140101 L46.1834667,4.7140101 L46.1834667,8.09529821 L46.8662268,8.09529821 L46.8662268,8.96952013 L46.1834667,8.96952013 L46.1834667,9.92682927 L45.1430704,9.92682927 Z M43.5716384,8.06639831 L43.5716384,8.12419811 L45.1683578,8.12419811 L45.1683578,5.54126969 L45.110558,5.54126969 C44.6011973,6.31795446 44.0448742,7.22468877 43.5716384,8.06639831 Z M49.7851166,10.0604913 C48.654408,10.0604913 47.8849482,9.38134369 47.8524358,8.44932196 L48.8603198,8.44932196 C48.9181196,8.90449536 49.2902058,9.19349435 49.7742791,9.19349435 C50.3233772,9.19349435 50.7026883,8.80695821 50.7026883,8.21812278 C50.7026883,7.6437373 50.3269896,7.26081364 49.795954,7.26081364 C49.3841305,7.26081364 49.0662316,7.45950044 48.9036697,7.77017435 L47.9282981,7.77017435 L48.2064596,4.7140101 L51.4613107,4.7140101 L51.4613107,5.58100705 L49.0517816,5.58100705 L48.9181196,7.00793953 L48.9831444,7.00793953 C49.1998936,6.68281568 49.5828173,6.49135385 50.1246904,6.49135385 C51.0241997,6.49135385 51.7430847,7.15243902 51.7430847,8.20367283 C51.7430847,9.30909394 50.9591749,10.0604913 49.7851166,10.0604913 Z M54.7920239,10.0568788 C53.5421033,10.0568788 52.635369,9.16459445 52.635369,7.36196329 C52.635369,5.6243569 53.4698536,4.58034807 54.8028614,4.58034807 C55.8288078,4.58034807 56.5910426,5.1691835 56.7174797,6.03256796 L55.637346,6.03256796 C55.5542588,5.66770675 55.2399724,5.44734502 54.8173114,5.44734502 C54.0948139,5.44734502 53.6757654,6.09759273 53.6757654,7.25358867 L53.7407901,7.25358867 C53.9792143,6.7622904 54.4632876,6.48774136 55.0701855,6.48774136 C56.060007,6.48774136 56.7861169,7.21385131 56.7861169,8.2108978 C56.7861169,9.2910315 55.9588573,10.0568788 54.7920239,10.0568788 Z M54.7811865,9.19349435 C55.3230596,9.19349435 55.7276582,8.77444582 55.7276582,8.23618521 C55.7276582,7.67624968 55.3447345,7.28248857 54.784799,7.28248857 C54.2248634,7.28248857 53.8383273,7.67986217 53.8383273,8.22173526 C53.8383273,8.77083333 54.2393134,9.19349435 54.7811865,9.19349435 Z M58.0035252,9.92682927 L60.2252048,5.64241933 L60.2252048,5.58100705 L57.5953141,5.58100705 L57.5953141,4.71039761 L61.323401,4.71039761 L61.323401,5.59184451 L59.1450711,9.92682927 L58.0035252,9.92682927 Z M64.1953284,10.0604913 C62.9417953,10.0604913 62.0928608,9.44275597 62.0928608,8.53240917 C62.0928608,7.87854897 62.5444217,7.35473831 63.2416317,7.20301385 L63.2416317,7.13798908 C62.6744712,7.00432705 62.302385,6.55637862 62.302385,6.00005558 C62.302385,5.17279599 63.0899073,4.58034807 64.1989409,4.58034807 C65.304362,4.58034807 66.0918842,5.17279599 66.0918842,6.00005558 C66.0918842,6.55637862 65.7234105,7.00432705 65.1526375,7.13798908 L65.1526375,7.20301385 C65.8462351,7.3294509 66.305021,7.85687405 66.305021,8.5251842 C66.305021,9.43914348 65.4488615,10.0604913 64.1953284,10.0604913 Z M64.1953284,6.83092765 C64.6794017,6.83092765 65.015363,6.53109121 65.015363,6.10120522 C65.015363,5.66770675 64.6794017,5.36425781 64.1953284,5.36425781 C63.7112551,5.36425781 63.3789063,5.66770675 63.3789063,6.10120522 C63.3789063,6.53109121 63.7148676,6.83092765 64.1953284,6.83092765 Z M64.1953284,9.25851912 C64.7697139,9.25851912 65.1670875,8.9225578 65.1670875,8.4384845 C65.1670875,7.95079872 64.7697139,7.6148374 64.1953284,7.6148374 C63.6245554,7.6148374 63.2271818,7.95079872 63.2271818,8.4384845 C63.2271818,8.9225578 63.6245554,9.25851912 64.1953284,9.25851912 Z" id="12AB№345678" stroke="none" fill="#212121" fill-rule="nonzero"></path>
                        </g>
                    </g>
                </g>
                <g id="Bitmap" transform="translate(0.000000, 109.000000)">
                    <mask id="mask-5" fill="white">
                        <use xlink:href="#path-4"></use>
                    </mask>
                    <use id="Mask" fill="url(#linearGradient-3)" xlink:href="#path-4"></use>
                    <g id="Group-3" mask="url(#mask-5)">
                        <g transform="translate(73.170732, 73.170732)">
                            <rect id="Rectangle" stroke="#FF4732" stroke-width="0.569105691" fill="none" x="-0.284552846" y="-0.0552845528" width="56.1788618" height="12.2764228" rx="6.13821138"></rect>
                            <path d="M5.07336128,8.19512195 L5.07336128,4.88528963 L5.02191311,4.88528963 L4.01009909,5.58841463 L4.01009909,4.81097561 L5.07621951,4.0706936 L5.93654726,4.0706936 L5.93654726,8.19512195 L5.07336128,8.19512195 Z M7.03125,5.32259909 C7.03125,4.51943598 7.66006098,3.96493902 8.5632622,3.96493902 C9.4378811,3.96493902 9.99809451,4.47084604 9.99809451,5.16539634 C9.99809451,5.6484375 9.78658537,5.97999238 9.10060976,6.63166921 L8.24314024,7.44912348 L8.24314024,7.50057165 L10.0552591,7.50057165 L10.0552591,8.19512195 L7.07983994,8.19512195 L7.07983994,7.61490091 L8.52610518,6.21722561 C9.04058689,5.71703506 9.15205793,5.52839177 9.15205793,5.2425686 C9.15205793,4.90529726 8.91768293,4.63662348 8.51467226,4.63662348 C8.0945122,4.63662348 7.83155488,4.91958841 7.83155488,5.32259909 L7.03125,5.32259909 Z M15.0886052,8.19512195 L14.7770579,7.19474085 L13.3279345,7.19474085 L13.0106707,8.19512195 L12.1446265,8.19512195 L13.5766006,4.0706936 L14.5912729,4.0706936 L16.023247,8.19512195 L15.0886052,8.19512195 Z M14.0310595,4.90815549 L13.5137195,6.54878049 L14.5941311,6.54878049 L14.0825076,4.90815549 L14.0310595,4.90815549 Z M18.5785061,8.19512195 L16.726372,8.19512195 L16.726372,4.0706936 L18.5299162,4.0706936 C19.330221,4.0706936 19.8075457,4.46227134 19.8075457,5.09965701 C19.8075457,5.53696646 19.4845655,5.91711128 19.0615473,5.97999238 L19.0615473,6.03144055 C19.6074695,6.07431402 20.0047637,6.48304116 20.0047637,7.01467226 C20.0047637,7.74066311 19.4588415,8.19512195 18.5785061,8.19512195 Z M17.5895579,4.7109375 L17.5895579,5.78563262 L18.2383765,5.78563262 C18.7042683,5.78563262 18.9586509,5.59127287 18.9586509,5.24828506 C18.9586509,4.91101372 18.7214177,4.7109375 18.3098323,4.7109375 L17.5895579,4.7109375 Z M17.5895579,7.55201982 L18.3584223,7.55201982 C18.8557546,7.55201982 19.1244284,7.34051067 19.1244284,6.9460747 C19.1244284,6.56021341 18.8471799,6.35442073 18.3384146,6.35442073 L17.5895579,6.35442073 L17.5895579,7.55201982 Z M27.1817835,6.09432165 C26.5529726,6.09432165 26.101372,5.68845274 26.101372,5.05106707 C26.101372,4.41653963 26.5501143,4.01067073 27.1817835,4.01067073 C27.8191692,4.01067073 28.273628,4.4136814 28.273628,5.05106707 C28.273628,5.68845274 27.8191692,6.09432165 27.1817835,6.09432165 Z M23.1202363,8.19512195 L22.2942073,8.19512195 L22.2942073,4.0706936 L23.0144817,4.0706936 L24.8266006,6.70598323 L24.8780488,6.70598323 L24.8780488,4.0706936 L25.7040777,4.0706936 L25.7040777,8.19512195 L24.9895198,8.19512195 L23.1716845,5.54839939 L23.1202363,5.54839939 L23.1202363,8.19512195 Z M27.1817835,5.56269055 C27.4618902,5.56269055 27.6362424,5.36261433 27.6362424,5.05106707 C27.6362424,4.73094512 27.4676067,4.5394436 27.1817835,4.5394436 C26.9073933,4.5394436 26.7387576,4.73380335 26.7387576,5.05106707 C26.7387576,5.36261433 26.9102515,5.56269055 27.1817835,5.56269055 Z M28.1650152,7.01753049 L26.2099848,7.01753049 L26.2099848,6.36585366 L28.1650152,6.36585366 L28.1650152,7.01753049 Z M29.8971037,6.38586128 L29.8971037,5.77134146 L30.4115854,5.77134146 C30.8031631,5.77134146 31.0689787,5.53410823 31.0689787,5.19112043 C31.0689787,4.87385671 30.826029,4.63090701 30.4230183,4.63090701 C30.0057165,4.63090701 29.7484756,4.84813262 29.7198933,5.22827744 L28.9224466,5.22827744 C28.951029,4.4765625 29.5369665,3.96493902 30.4658918,3.96493902 C31.3805259,3.96493902 31.8892912,4.47084604 31.8864329,5.07393293 C31.8835747,5.57412348 31.5691692,5.89996189 31.1261433,6.01143293 L31.1261433,6.0628811 C31.7006479,6.14862805 32.0493521,6.51448171 32.0493521,7.06897866 C32.0493521,7.78925305 31.369093,8.30087652 30.4373095,8.30087652 C29.5055259,8.30087652 28.8709985,7.79496951 28.8338415,7.02324695 L29.6598704,7.02324695 C29.6855945,7.38052591 29.9828506,7.60632622 30.4258765,7.60632622 C30.863186,7.60632622 31.1690168,7.36051829 31.1690168,6.99752287 C31.1690168,6.62023628 30.8831936,6.38586128 30.4201601,6.38586128 L29.8971037,6.38586128 Z M34.7446646,8.19512195 L34.7446646,7.43769055 L32.726753,7.43769055 L32.726753,6.76028963 C33.2469512,5.83136433 33.8071646,4.91673018 34.3588034,4.0706936 L35.5678354,4.0706936 L35.5678354,6.74599848 L36.1080412,6.74599848 L36.1080412,7.43769055 L35.5678354,7.43769055 L35.5678354,8.19512195 L34.7446646,8.19512195 Z M33.5013338,6.72313262 L33.5013338,6.76886433 L34.7646723,6.76886433 L34.7646723,4.72522866 L34.7189405,4.72522866 C34.3159299,5.33974848 33.8757622,6.05716463 33.5013338,6.72313262 Z M38.4174924,8.30087652 C37.5228659,8.30087652 36.9140625,7.76352896 36.8883384,7.02610518 L37.6857851,7.02610518 C37.7315168,7.38624238 38.0259146,7.61490091 38.4089177,7.61490091 C38.8433689,7.61490091 39.1434832,7.30907012 39.1434832,6.84317835 C39.1434832,6.38871951 38.8462271,6.08574695 38.4260671,6.08574695 C38.1002287,6.08574695 37.8487043,6.2429497 37.7200838,6.48875762 L36.9483613,6.48875762 L37.1684451,4.0706936 L39.7437119,4.0706936 L39.7437119,4.75666921 L37.8372713,4.75666921 L37.7315168,5.88567073 L37.7829649,5.88567073 C37.9544588,5.62842988 38.2574314,5.4769436 38.6861662,5.4769436 C39.3978659,5.4769436 39.966654,6 39.966654,6.83174543 C39.966654,7.70636433 39.3464177,8.30087652 38.4174924,8.30087652 Z M42.3790015,8.29801829 C41.3900534,8.29801829 40.6726372,7.59203506 40.6726372,6.16577744 C40.6726372,4.79096799 41.3328887,3.96493902 42.3875762,3.96493902 C43.199314,3.96493902 43.8024009,4.43083079 43.902439,5.11394817 L43.0478277,5.11394817 C42.9820884,4.82526677 42.7334223,4.65091463 42.3990091,4.65091463 C41.8273628,4.65091463 41.4958079,5.16539634 41.4958079,6.08003049 L41.5472561,6.08003049 C41.7358994,5.69131098 42.1189024,5.47408537 42.5990854,5.47408537 C43.3822409,5.47408537 43.9567454,6.04858994 43.9567454,6.83746189 C43.9567454,7.69207317 43.3022104,8.29801829 42.3790015,8.29801829 Z M42.3704268,7.61490091 C42.7991616,7.61490091 43.1192835,7.28334604 43.1192835,6.85746951 C43.1192835,6.4144436 42.816311,6.10289634 42.3732851,6.10289634 C41.9302591,6.10289634 41.6244284,6.41730183 41.6244284,6.84603659 C41.6244284,7.2804878 41.9416921,7.61490091 42.3704268,7.61490091 Z M44.9199695,8.19512195 L46.677782,4.80525915 L46.677782,4.75666921 L44.5969893,4.75666921 L44.5969893,4.06783537 L47.5466845,4.06783537 L47.5466845,4.7652439 L45.8231707,8.19512195 L44.9199695,8.19512195 Z M49.8189787,8.30087652 C48.8271723,8.30087652 48.1554878,7.8121189 48.1554878,7.09184451 C48.1554878,6.57450457 48.5127668,6.16006098 49.0644055,6.04001524 L49.0644055,5.98856707 C48.6156631,5.8828125 48.3212652,5.52839177 48.3212652,5.08822409 C48.3212652,4.43368902 48.9443598,3.96493902 49.8218369,3.96493902 C50.6964558,3.96493902 51.3195503,4.43368902 51.3195503,5.08822409 C51.3195503,5.52839177 51.0280107,5.8828125 50.5764101,5.98856707 L50.5764101,6.04001524 C51.1251905,6.14005335 51.488186,6.55735518 51.488186,7.08612805 C51.488186,7.80926067 50.8107851,8.30087652 49.8189787,8.30087652 Z M49.8189787,5.74561738 C50.2019817,5.74561738 50.4677973,5.50838415 50.4677973,5.16825457 C50.4677973,4.82526677 50.2019817,4.5851753 49.8189787,4.5851753 C49.4359756,4.5851753 49.1730183,4.82526677 49.1730183,5.16825457 C49.1730183,5.50838415 49.4388338,5.74561738 49.8189787,5.74561738 Z M49.8189787,7.66634909 C50.2734375,7.66634909 50.587843,7.40053354 50.587843,7.01753049 C50.587843,6.63166921 50.2734375,6.36585366 49.8189787,6.36585366 C49.367378,6.36585366 49.0529726,6.63166921 49.0529726,7.01753049 C49.0529726,7.40053354 49.367378,7.66634909 49.8189787,7.66634909 Z" id="12AB№345678" stroke="none" fill="#212121" fill-rule="nonzero"></path>
                        </g>
                    </g>
                    <rect id="Rectangle" fill-opacity="0.24" fill="#000000" mask="url(#mask-5)" x="76.8292683" y="20.4878049" width="26.3414634" height="2.92682927" rx="1.46341463"></rect>
                    <rect id="Rectangle" fill-opacity="0.24" fill="#000000" mask="url(#mask-5)" x="76.8292683" y="25.6097561" width="10.9756098" height="2.19512195" rx="1.09756098"></rect>
                    <rect id="Rectangle" fill-opacity="0.24" fill="#000000" mask="url(#mask-5)" x="76.8292683" y="36.5853659" width="18.2926829" height="2.19512195" rx="1.09756098"></rect>
                    <rect id="Rectangle" fill-opacity="0.24" fill="#000000" mask="url(#mask-5)" x="76.8292683" y="52.6829268" width="10.9756098" height="2.19512195" rx="1.09756098"></rect>
                    <rect id="Rectangle" fill-opacity="0.24" fill="#000000" mask="url(#mask-5)" x="76.8292683" y="68.0487805" width="10.9756098" height="2.19512195" rx="1.09756098"></rect>
                    <rect id="Rectangle" fill-opacity="0.24" fill="#000000" mask="url(#mask-5)" x="76.8292683" y="92.195122" width="10.9756098" height="2.19512195" rx="1.09756098"></rect>
                    <rect id="Rectangle" fill-opacity="0.24" fill="#000000" mask="url(#mask-5)" x="96.5853659" y="36.5853659" width="11.7073171" height="2.19512195" rx="1.09756098"></rect>
                    <rect id="Rectangle" fill-opacity="0.24" fill="#000000" mask="url(#mask-5)" x="76.8292683" y="31.4634146" width="31.4634146" height="2.92682927" rx="1.46341463"></rect>
                    <rect id="Rectangle" fill-opacity="0.24" fill="#000000" mask="url(#mask-5)" x="109.756098" y="31.4634146" width="22.6829268" height="2.92682927" rx="1.46341463"></rect>
                    <rect id="Rectangle" fill-opacity="0.24" fill="#000000" mask="url(#mask-5)" x="76.8292683" y="41.7073171" width="28.5365854" height="2.92682927" rx="1.46341463"></rect>
                    <rect id="Rectangle" fill-opacity="0.24" fill="#000000" mask="url(#mask-5)" x="76.8292683" y="46.8292683" width="21.9512195" height="2.92682927" rx="1.46341463"></rect>
                    <rect id="Rectangle" fill-opacity="0.24" fill="#000000" mask="url(#mask-5)" x="76.8292683" y="57.804878" width="31.4634146" height="2.92682927" rx="1.46341463"></rect>
                    <rect id="Rectangle" fill-opacity="0.24" fill="#000000" mask="url(#mask-5)" x="122.926829" y="57.804878" width="26.3414634" height="2.92682927" rx="1.46341463"></rect>
                    <rect id="Rectangle" fill-opacity="0.24" fill="#000000" mask="url(#mask-5)" x="76.8292683" y="62.9268293" width="25.6097561" height="2.92682927" rx="1.46341463"></rect>
                    <rect id="Rectangle" fill-opacity="0.24" fill="#000000" mask="url(#mask-5)" x="76.8292683" y="87.0731707" width="25.6097561" height="2.92682927" rx="1.46341463"></rect>
                    <rect id="Rectangle" fill-opacity="0.24" fill="#000000" mask="url(#mask-5)" x="68.7804878" y="21.2195122" width="2.19512195" height="2.19512195" rx="1.09756098"></rect>
                    <rect id="Rectangle" fill-opacity="0.24" fill="#000000" mask="url(#mask-5)" x="68.7804878" y="32.195122" width="2.19512195" height="2.19512195" rx="1.09756098"></rect>
                    <rect id="Rectangle" fill-opacity="0.24" fill="#000000" mask="url(#mask-5)" x="68.7804878" y="42.4390244" width="2.19512195" height="2.19512195" rx="1.09756098"></rect>
                    <rect id="Rectangle" fill-opacity="0.24" fill="#000000" mask="url(#mask-5)" x="68.7804878" y="58.5365854" width="2.19512195" height="2.19512195" rx="1.09756098"></rect>
                    <rect id="Rectangle" fill-opacity="0.24" fill="#000000" mask="url(#mask-5)" x="118.536585" y="58.5365854" width="2.19512195" height="2.19512195" rx="1.09756098"></rect>
                    <rect id="Rectangle" fill-opacity="0.24" fill="#000000" mask="url(#mask-5)" x="68.7804878" y="63.6585366" width="2.19512195" height="2.19512195" rx="1.09756098"></rect>
                    <rect id="Rectangle" fill-opacity="0.24" fill="#000000" mask="url(#mask-5)" x="68.7804878" y="78.2926829" width="2.19512195" height="2.19512195" rx="1.09756098"></rect>
                    <rect id="Rectangle" fill-opacity="0.24" fill="#000000" mask="url(#mask-5)" x="68.7804878" y="87.804878" width="2.19512195" height="2.19512195" rx="1.09756098"></rect>
                    <rect id="Rectangle" fill-opacity="0.24" fill="#000000" mask="url(#mask-5)" x="12.4390244" y="82.6829268" width="2.19512195" height="2.19512195" rx="1.09756098"></rect>
                    <rect id="Rectangle" fill-opacity="0.24" fill="#000000" mask="url(#mask-5)" x="12.4390244" y="87.804878" width="2.19512195" height="2.19512195" rx="1.09756098"></rect>
                    <rect id="Rectangle" fill-opacity="0.24" fill="#000000" mask="url(#mask-5)" x="26.3414634" y="8.04878049" width="14.6341463" height="5.85365854" rx="2.92682927"></rect>
                    <rect id="Rectangle" fill-opacity="0.24" fill="#000000" mask="url(#mask-5)" x="68.7804878" y="8.04878049" width="79.7560976" height="5.85365854" rx="2.92682927"></rect>
                    <path d="M33.6585366,26.5853659 C20.8682927,26.5853659 10.4878049,36.9658537 10.4878049,49.7560976 C10.4878049,62.5463415 20.8682927,72.9268293 33.6585366,72.9268293 C46.4487805,72.9268293 56.8292683,62.5463415 56.8292683,49.7560976 C56.8292683,36.9658537 46.4487805,26.5853659 33.6585366,26.5853659 Z M33.6585366,33.5365854 C37.504878,33.5365854 40.6097561,36.6414634 40.6097561,40.4878049 C40.6097561,44.3341463 37.504878,47.4390244 33.6585366,47.4390244 C29.8121951,47.4390244 26.7073171,44.3341463 26.7073171,40.4878049 C26.7073171,36.6414634 29.8121951,33.5365854 33.6585366,33.5365854 Z M33.6585366,66.4390244 C27.8658537,66.4390244 22.745122,63.4731707 19.7560976,58.9780488 C19.8256098,54.3670732 29.0243902,51.8414634 33.6585366,51.8414634 C38.2695122,51.8414634 47.4914634,54.3670732 47.5609756,58.9780488 C44.5719512,63.4731707 39.4512195,66.4390244 33.6585366,66.4390244 Z" id="Shape" fill-opacity="0.24" fill="#000000" fill-rule="nonzero" mask="url(#mask-5)"></path>
                </g>
            </g>
        </g>
    </g>
</svg>