<?xml version="1.0" encoding="UTF-8"?>
<svg width="160px" height="208px" viewBox="0 0 160 208" version="1.1" xmlns="http://www.w3.org/2000/svg" xmlns:xlink="http://www.w3.org/1999/xlink">
    <!-- Generator: Sketch 56.3 (81716) - https://sketch.com -->
    <title>ВУ</title>
    <desc>Created with Sketch.</desc>
    <defs>
        <rect id="path-1" x="0" y="0" width="159.512195" height="98.7804878" rx="8.7804878"></rect>
        <linearGradient x1="0%" y1="30.8254777%" x2="100%" y2="69.1745223%" id="linearGradient-3">
            <stop stop-color="#C9E4FA" offset="0%"></stop>
            <stop stop-color="#FFC7E3" offset="100%"></stop>
        </linearGradient>
        <rect id="path-4" x="0" y="0" width="159.512195" height="98.7804878" rx="8.7804878"></rect>
    </defs>
    <g id="Desktop" stroke="none" stroke-width="1" fill="none" fill-rule="evenodd">
        <g id="Поиск-штрафов-по-ВУ-и-СТС" transform="translate(-608.000000, -257.000000)">
            <g id="ВУ" transform="translate(608.000000, 257.000000)">
                <g id="Bitmap">
                    <mask id="mask-2" fill="white">
                        <use xlink:href="#path-1"></use>
                    </mask>
                    <use id="Mask" fill="#F2F2F2" xlink:href="#path-1"></use>
                    <polygon id="Polygon" fill="#CCCCCC" mask="url(#mask-2)" transform="translate(80.621717, 82.183161) rotate(30.000000) translate(-80.621717, -82.183161) " points="80.6217166 71.939259 89.4931964 77.0612102 89.4931964 87.3051127 80.6217166 92.4270639 71.7502369 87.3051127 71.7502369 77.0612102"></polygon>
                    <path d="M34.3902439,36.8292683 C21.6,36.8292683 11.2195122,47.2097561 11.2195122,60 C11.2195122,72.7902439 21.6,83.1707317 34.3902439,83.1707317 C47.1804878,83.1707317 57.5609756,72.7902439 57.5609756,60 C57.5609756,47.2097561 47.1804878,36.8292683 34.3902439,36.8292683 Z M34.3902439,43.7804878 C38.2365854,43.7804878 41.3414634,46.8853659 41.3414634,50.7317073 C41.3414634,54.5780488 38.2365854,57.6829268 34.3902439,57.6829268 C30.5439024,57.6829268 27.4390244,54.5780488 27.4390244,50.7317073 C27.4390244,46.8853659 30.5439024,43.7804878 34.3902439,43.7804878 Z M34.3902439,76.6829268 C28.597561,76.6829268 23.4768293,73.7170732 20.4878049,69.2219512 C20.5573171,64.6109756 29.7560976,62.0853659 34.3902439,62.0853659 C39.0012195,62.0853659 48.2231707,64.6109756 48.2926829,69.2219512 C45.3036585,73.7170732 40.1829268,76.6829268 34.3902439,76.6829268 Z" id="Shape" fill="#CCCCCC" fill-rule="nonzero" mask="url(#mask-2)"></path>
                    <rect id="Rectangle" fill="#CCCCCC" mask="url(#mask-2)" x="18.2926829" y="10.2439024" width="32.9268293" height="3.65853659" rx="1.82926829"></rect>
                    <rect id="Rectangle" fill="#CCCCCC" mask="url(#mask-2)" x="20.4878049" y="16.097561" width="28.5365854" height="3.65853659" rx="1.82926829"></rect>
                    <rect id="Rectangle" fill="#CCCCCC" mask="url(#mask-2)" x="68.7804878" y="10.2439024" width="79.7560976" height="3.65853659" rx="1.82926829"></rect>
                    <rect id="Rectangle" fill="#CCCCCC" mask="url(#mask-2)" x="83.4146341" y="16.097561" width="49.7560976" height="3.65853659" rx="1.82926829"></rect>
                    <rect id="Rectangle" fill="#CCCCCC" mask="url(#mask-2)" x="107.560976" y="38.7804878" width="28.5365854" height="3.65853659" rx="1.82926829"></rect>
                    <rect id="Rectangle" fill="#CCCCCC" mask="url(#mask-2)" x="107.560976" y="57.0731707" width="42.4390244" height="3.65853659" rx="1.82926829"></rect>
                    <rect id="Rectangle" fill="#CCCCCC" mask="url(#mask-2)" x="107.560976" y="47.5609756" width="21.9512195" height="3.65853659" rx="1.82926829"></rect>
                    <rect id="Rectangle" fill="#CCCCCC" mask="url(#mask-2)" x="120.731707" y="62.9268293" width="15.3658537" height="3.65853659" rx="1.82926829"></rect>
                    <rect id="Rectangle" fill="#CCCCCC" mask="url(#mask-2)" x="125.121951" y="78.2926829" width="15.3658537" height="3.65853659" rx="1.82926829"></rect>
                    <rect id="Rectangle" fill="#CCCCCC" mask="url(#mask-2)" x="95.8536585" y="78.2926829" width="15.3658537" height="3.65853659" rx="1.82926829"></rect>
                    <rect id="Rectangle" fill="#CCCCCC" mask="url(#mask-2)" x="69.5121951" y="40.2439024" width="21.2195122" height="2.19512195" rx="1.09756098"></rect>
                    <rect id="Rectangle" fill="#CCCCCC" mask="url(#mask-2)" x="69.5121951" y="49.0243902" width="12.4390244" height="2.19512195" rx="1.09756098"></rect>
                    <rect id="Rectangle" fill="#CCCCCC" mask="url(#mask-2)" x="95.8536585" y="73.1707317" width="21.2195122" height="2.19512195" rx="1.09756098"></rect>
                    <rect id="Rectangle" fill="#CCCCCC" mask="url(#mask-2)" x="95.8536585" y="85.6097561" width="13.902439" height="2.19512195" rx="1.09756098"></rect>
                    <rect id="Rectangle" fill="#CCCCCC" mask="url(#mask-2)" x="95.8536585" y="89.2682927" width="26.3414634" height="2.19512195" rx="1.09756098"></rect>
                    <rect id="Rectangle" fill="#CCCCCC" mask="url(#mask-2)" x="124.390244" y="73.1707317" width="21.2195122" height="2.19512195" rx="1.09756098"></rect>
                    <rect id="Rectangle" fill="#CCCCCC" mask="url(#mask-2)" x="69.5121951" y="58.5365854" width="20.4878049" height="2.19512195" rx="1.09756098"></rect>
                    <rect id="Rectangle" fill="#CCCCCC" mask="url(#mask-2)" x="69.5121951" y="63.6585366" width="46.8292683" height="2.19512195" rx="1.09756098"></rect>
                    <g id="Group-3" mask="url(#mask-2)">
                        <g transform="translate(63.658537, 21.951220)">
                            <rect id="Rectangle" stroke="#FF4732" stroke-width="0.569105691" x="-0.284552846" y="-0.284552846" width="73.7398374" height="15.203252" rx="7.60162602"></rect>
                            <text id="12-AB-№345678" stroke="none" font-family="SFProText-Bold, SF Pro Text" font-size="7.39837398" font-weight="bold">
                                <tspan x="5.85365854" y="9.92682927" fill="#212121">12 AB №345678</tspan>
                            </text>
                        </g>
                    </g>
                </g>
                <g id="Bitmap" transform="translate(0.000000, 109.000000)">
                    <mask id="mask-5" fill="white">
                        <use xlink:href="#path-4"></use>
                    </mask>
                    <use id="Mask" fill="url(#linearGradient-3)" xlink:href="#path-4"></use>
                    <g id="Group-3" mask="url(#mask-5)">
                        <g transform="translate(73.170732, 73.170732)">
                            <rect id="Rectangle" stroke="#FF4732" stroke-width="0.569105691" x="-0.284552846" y="-0.0552845528" width="56.1788618" height="12.2764228" rx="6.13821138"></rect>
                            <text id="12-AB-№345678" stroke="none" font-family="SFProText-Bold, SF Pro Text" font-size="5.85365854" font-weight="bold">
                                <tspan x="3.65853659" y="8.19512195" fill="#212121">12 AB №345678</tspan>
                            </text>
                        </g>
                    </g>
                    <rect id="Rectangle" fill-opacity="0.24" fill="#000000" mask="url(#mask-5)" x="76.8292683" y="20.4878049" width="26.3414634" height="2.92682927" rx="1.46341463"></rect>
                    <rect id="Rectangle" fill-opacity="0.24" fill="#000000" mask="url(#mask-5)" x="76.8292683" y="25.6097561" width="10.9756098" height="2.19512195" rx="1.09756098"></rect>
                    <rect id="Rectangle" fill-opacity="0.24" fill="#000000" mask="url(#mask-5)" x="76.8292683" y="36.5853659" width="18.2926829" height="2.19512195" rx="1.09756098"></rect>
                    <rect id="Rectangle" fill-opacity="0.24" fill="#000000" mask="url(#mask-5)" x="76.8292683" y="52.6829268" width="10.9756098" height="2.19512195" rx="1.09756098"></rect>
                    <rect id="Rectangle" fill-opacity="0.24" fill="#000000" mask="url(#mask-5)" x="76.8292683" y="68.0487805" width="10.9756098" height="2.19512195" rx="1.09756098"></rect>
                    <rect id="Rectangle" fill-opacity="0.24" fill="#000000" mask="url(#mask-5)" x="76.8292683" y="92.195122" width="10.9756098" height="2.19512195" rx="1.09756098"></rect>
                    <rect id="Rectangle" fill-opacity="0.24" fill="#000000" mask="url(#mask-5)" x="96.5853659" y="36.5853659" width="11.7073171" height="2.19512195" rx="1.09756098"></rect>
                    <rect id="Rectangle" fill-opacity="0.24" fill="#000000" mask="url(#mask-5)" x="76.8292683" y="31.4634146" width="31.4634146" height="2.92682927" rx="1.46341463"></rect>
                    <rect id="Rectangle" fill-opacity="0.24" fill="#000000" mask="url(#mask-5)" x="109.756098" y="31.4634146" width="22.6829268" height="2.92682927" rx="1.46341463"></rect>
                    <rect id="Rectangle" fill-opacity="0.24" fill="#000000" mask="url(#mask-5)" x="76.8292683" y="41.7073171" width="28.5365854" height="2.92682927" rx="1.46341463"></rect>
                    <rect id="Rectangle" fill-opacity="0.24" fill="#000000" mask="url(#mask-5)" x="76.8292683" y="46.8292683" width="21.9512195" height="2.92682927" rx="1.46341463"></rect>
                    <rect id="Rectangle" fill-opacity="0.24" fill="#000000" mask="url(#mask-5)" x="76.8292683" y="57.804878" width="31.4634146" height="2.92682927" rx="1.46341463"></rect>
                    <rect id="Rectangle" fill-opacity="0.24" fill="#000000" mask="url(#mask-5)" x="122.926829" y="57.804878" width="26.3414634" height="2.92682927" rx="1.46341463"></rect>
                    <rect id="Rectangle" fill-opacity="0.24" fill="#000000" mask="url(#mask-5)" x="76.8292683" y="62.9268293" width="25.6097561" height="2.92682927" rx="1.46341463"></rect>
                    <rect id="Rectangle" fill-opacity="0.24" fill="#000000" mask="url(#mask-5)" x="76.8292683" y="87.0731707" width="25.6097561" height="2.92682927" rx="1.46341463"></rect>
                    <rect id="Rectangle" fill-opacity="0.24" fill="#000000" mask="url(#mask-5)" x="68.7804878" y="21.2195122" width="2.19512195" height="2.19512195" rx="1.09756098"></rect>
                    <rect id="Rectangle" fill-opacity="0.24" fill="#000000" mask="url(#mask-5)" x="68.7804878" y="32.195122" width="2.19512195" height="2.19512195" rx="1.09756098"></rect>
                    <rect id="Rectangle" fill-opacity="0.24" fill="#000000" mask="url(#mask-5)" x="68.7804878" y="42.4390244" width="2.19512195" height="2.19512195" rx="1.09756098"></rect>
                    <rect id="Rectangle" fill-opacity="0.24" fill="#000000" mask="url(#mask-5)" x="68.7804878" y="58.5365854" width="2.19512195" height="2.19512195" rx="1.09756098"></rect>
                    <rect id="Rectangle" fill-opacity="0.24" fill="#000000" mask="url(#mask-5)" x="118.536585" y="58.5365854" width="2.19512195" height="2.19512195" rx="1.09756098"></rect>
                    <rect id="Rectangle" fill-opacity="0.24" fill="#000000" mask="url(#mask-5)" x="68.7804878" y="63.6585366" width="2.19512195" height="2.19512195" rx="1.09756098"></rect>
                    <rect id="Rectangle" fill-opacity="0.24" fill="#000000" mask="url(#mask-5)" x="68.7804878" y="78.2926829" width="2.19512195" height="2.19512195" rx="1.09756098"></rect>
                    <rect id="Rectangle" fill-opacity="0.24" fill="#000000" mask="url(#mask-5)" x="68.7804878" y="87.804878" width="2.19512195" height="2.19512195" rx="1.09756098"></rect>
                    <rect id="Rectangle" fill-opacity="0.24" fill="#000000" mask="url(#mask-5)" x="12.4390244" y="82.6829268" width="2.19512195" height="2.19512195" rx="1.09756098"></rect>
                    <rect id="Rectangle" fill-opacity="0.24" fill="#000000" mask="url(#mask-5)" x="12.4390244" y="87.804878" width="2.19512195" height="2.19512195" rx="1.09756098"></rect>
                    <rect id="Rectangle" fill-opacity="0.24" fill="#000000" mask="url(#mask-5)" x="26.3414634" y="8.04878049" width="14.6341463" height="5.85365854" rx="2.92682927"></rect>
                    <rect id="Rectangle" fill-opacity="0.24" fill="#000000" mask="url(#mask-5)" x="68.7804878" y="8.04878049" width="79.7560976" height="5.85365854" rx="2.92682927"></rect>
                    <path d="M33.6585366,26.5853659 C20.8682927,26.5853659 10.4878049,36.9658537 10.4878049,49.7560976 C10.4878049,62.5463415 20.8682927,72.9268293 33.6585366,72.9268293 C46.4487805,72.9268293 56.8292683,62.5463415 56.8292683,49.7560976 C56.8292683,36.9658537 46.4487805,26.5853659 33.6585366,26.5853659 Z M33.6585366,33.5365854 C37.504878,33.5365854 40.6097561,36.6414634 40.6097561,40.4878049 C40.6097561,44.3341463 37.504878,47.4390244 33.6585366,47.4390244 C29.8121951,47.4390244 26.7073171,44.3341463 26.7073171,40.4878049 C26.7073171,36.6414634 29.8121951,33.5365854 33.6585366,33.5365854 Z M33.6585366,66.4390244 C27.8658537,66.4390244 22.745122,63.4731707 19.7560976,58.9780488 C19.8256098,54.3670732 29.0243902,51.8414634 33.6585366,51.8414634 C38.2695122,51.8414634 47.4914634,54.3670732 47.5609756,58.9780488 C44.5719512,63.4731707 39.4512195,66.4390244 33.6585366,66.4390244 Z" id="Shape" fill-opacity="0.24" fill="#000000" fill-rule="nonzero" mask="url(#mask-5)"></path>
                </g>
            </g>
        </g>
    </g>
</svg>