<?xml version="1.0" encoding="UTF-8"?>
<svg width="160px" height="228px" viewBox="0 0 160 228" version="1.1" xmlns="http://www.w3.org/2000/svg" xmlns:xlink="http://www.w3.org/1999/xlink">
    <!-- Generator: Sketch 56.3 (81716) - https://sketch.com -->
    <title>СТС</title>
    <desc>Created with Sketch.</desc>
    <defs>
        <linearGradient x1="74.5940498%" y1="100%" x2="25.4059502%" y2="1.72254642e-14%" id="linearGradient-1">
            <stop stop-color="#FFC6E4" offset="0%"></stop>
            <stop stop-color="#C9E4FA" offset="100%"></stop>
        </linearGradient>
        <rect id="path-2" x="0" y="0" width="159.745223" height="227.770701" rx="9.17197452"></rect>
    </defs>
    <g id="Desktop" stroke="none" stroke-width="1" fill="none" fill-rule="evenodd">
        <g id="Поиск-штрафов-по-ВУ-и-СТС" transform="translate(-608.000000, -257.000000)">
            <g id="СТС" transform="translate(608.000000, 257.000000)">
                <mask id="mask-3" fill="white">
                    <use xlink:href="#path-2"></use>
                </mask>
                <g id="Mask">
                    <use fill="#FFFFFF" xlink:href="#path-2"></use>
                    <use fill-opacity="0.8" fill="url(#linearGradient-1)" xlink:href="#path-2"></use>
                </g>
                <rect id="Rectangle" fill="#000000" opacity="0.04" mask="url(#mask-3)" x="0" y="158.980892" width="159.745223" height="37.4522293"></rect>
                <rect id="Rectangle" stroke="#FF4732" stroke-width="0.76433121" mask="url(#mask-3)" x="34.0127389" y="202.165605" width="92.4840764" height="21.4012739" rx="10.3184713"></rect>
                <path d="M43.2362162,216.133758 L43.2362162,210.253483 L43.1537371,210.253483 L41.3974174,211.510077 L41.3974174,210.4427 L43.2410679,209.132738 L44.3229996,209.132738 L44.3229996,216.133758 L43.2362162,216.133758 Z M46.2976463,211.160753 C46.2976463,209.87505 47.2922472,208.962928 48.7040953,208.962928 C50.0189092,208.962928 50.964993,209.802274 50.964993,210.95213 C50.964993,211.762366 50.6108181,212.339719 49.383335,213.572054 L47.8404906,215.124602 L47.8404906,215.207081 L51.0717307,215.207081 L51.0717307,216.133758 L46.3558668,216.133758 L46.3558668,215.396298 L48.7526125,212.902518 C49.6404757,211.975841 49.8733579,211.626518 49.8733579,211.058867 C49.8733579,210.379628 49.4124453,209.860495 48.6361714,209.860495 C47.8453424,209.860495 47.3262092,210.384479 47.3262092,211.160753 L46.2976463,211.160753 Z M59.8678842,216.133758 L59.2274582,214.24159 L56.5590167,214.24159 L55.9137391,216.133758 L54.7978453,216.133758 L57.3255872,209.132738 L58.4948497,209.132738 L61.0225916,216.133758 L59.8678842,216.133758 Z M57.8544238,210.369924 L56.8355643,213.368282 L58.9509106,213.368282 L57.9369029,210.369924 L57.8544238,210.369924 Z M65.1174363,216.133758 L62.2403712,216.133758 L62.2403712,209.132738 L65.0543641,209.132738 C66.3691779,209.132738 67.160007,209.802274 67.160007,210.879354 C67.160007,211.611963 66.621467,212.266944 65.9325239,212.383385 L65.9325239,212.465864 C66.8786077,212.56775 67.5093302,213.237286 67.5093302,214.15426 C67.5093302,215.386594 66.6117635,216.133758 65.1174363,216.133758 Z M63.3271547,210.020601 L63.3271547,212.111689 L64.61771,212.111689 C65.5783489,212.111689 66.0780752,211.752662 66.0780752,211.068571 C66.0780752,210.403886 65.6074592,210.020601 64.802075,210.020601 L63.3271547,210.020601 Z M63.3271547,215.245895 L64.8991093,215.245895 C65.8791551,215.245895 66.3982882,214.843203 66.3982882,214.086336 C66.3982882,213.329469 65.8597482,212.941332 64.836037,212.941332 L63.3271547,212.941332 L63.3271547,215.245895 Z M79.6919785,212.465864 C78.707081,212.465864 77.950214,211.801179 77.950214,210.748358 C77.950214,209.695536 78.707081,209.035704 79.6919785,209.035704 C80.6962828,209.035704 81.467705,209.695536 81.467705,210.748358 C81.467705,211.801179 80.6962828,212.465864 79.6919785,212.465864 Z M72.6764033,216.133758 L71.6187301,216.133758 L71.6187301,209.132738 L72.5987759,209.132738 L76.048343,214.246442 L76.1259703,214.246442 L76.1259703,209.132738 L77.1836435,209.132738 L77.1836435,216.133758 L76.2035977,216.133758 L72.7540307,211.024905 L72.6764033,211.024905 L72.6764033,216.133758 Z M79.6919785,211.742959 C80.2256668,211.742959 80.5798418,211.34997 80.5798418,210.748358 C80.5798418,210.13219 80.2402219,209.753757 79.6919785,209.753757 C79.1728453,209.753757 78.8332255,210.13219 78.8332255,210.748358 C78.8332255,211.34997 79.1728453,211.742959 79.6919785,211.742959 Z M81.3221537,213.892267 L78.1103205,213.892267 L78.1103205,212.984997 L81.3221537,212.984997 L81.3221537,213.892267 Z M84.077926,212.96559 L84.077926,212.111689 L84.9221238,212.111689 C85.6789908,212.111689 86.2029757,211.636221 86.2029757,210.961833 C86.2029757,210.345666 85.7372114,209.855643 84.9512341,209.855643 C84.1555533,209.855643 83.6461236,210.268038 83.5830514,211.000647 L82.5544885,211.000647 C82.6272641,209.811978 83.5393859,208.962928 85.0143063,208.962928 C86.4601164,208.962928 87.2800557,209.831384 87.275204,210.825985 C87.2703523,211.670183 86.7415157,212.22813 86.0089072,212.431902 L86.0089072,212.514381 C86.9404359,212.655081 87.5420482,213.2761 87.5420482,214.236739 C87.5420482,215.43026 86.4407096,216.303568 84.9803443,216.303568 C83.5005723,216.303568 82.4817128,215.493332 82.4234922,214.260997 L83.4666103,214.260997 C83.5296825,214.94994 84.1167396,215.391446 84.9657892,215.391446 C85.8245422,215.391446 86.4261545,214.906275 86.4261545,214.178518 C86.4261545,213.431354 85.8633559,212.96559 84.9512341,212.96559 L84.077926,212.96559 Z M92.1317675,216.133758 L92.1317675,214.741317 L88.7161624,214.741317 L88.7161624,213.819491 C89.6379877,212.237833 90.6665506,210.5834 91.6320412,209.132738 L93.1797373,209.132738 L93.1797373,213.819491 L94.1452279,213.819491 L94.1452279,214.741317 L93.1797373,214.741317 L93.1797373,216.133758 L92.1317675,216.133758 Z M89.7592805,213.770974 L89.7592805,213.838898 L92.1463227,213.838898 L92.1463227,210.049711 L92.0832504,210.049711 C91.3312351,211.18016 90.4773338,212.543491 89.7592805,213.770974 Z M97.9101562,216.303568 C96.517715,216.303568 95.5376692,215.454518 95.4697452,214.236739 L96.5080115,214.236739 C96.5856389,214.935385 97.1532892,215.396298 97.915008,215.396298 C98.7640575,215.396298 99.3365595,214.784982 99.3365595,213.87286 C99.3365595,212.989849 98.7689092,212.39794 97.9441182,212.39794 C97.3230991,212.39794 96.8330762,212.689043 96.5759355,213.174214 L95.5813346,213.174214 L95.9743232,209.132738 L100.035206,209.132738 L100.035206,210.054563 L96.8185211,210.054563 L96.6147492,212.203871 L96.6972283,212.203871 C97.0174413,211.772069 97.5365744,211.544039 98.2449244,211.544039 C99.428742,211.544039 100.399084,212.45616 100.399084,213.853453 C100.399084,215.308967 99.3947801,216.303568 97.9101562,216.303568 Z M104.358081,216.298716 C102.781275,216.298716 101.631419,215.110047 101.631419,212.727856 C101.631419,210.350518 102.698796,208.962928 104.401747,208.962928 C105.716561,208.962928 106.618979,209.700388 106.793641,210.81143 L105.702005,210.81143 C105.566157,210.219521 105.085838,209.879901 104.426005,209.879901 C103.33437,209.879901 102.693944,210.816282 102.674537,212.592008 L102.757016,212.592008 C103.091784,211.91762 103.766172,211.529483 104.595815,211.529483 C105.925184,211.529483 106.895526,212.514381 106.895526,213.863157 C106.895526,215.284708 105.842705,216.298716 104.358081,216.298716 Z M104.348378,215.391446 C105.182872,215.391446 105.818446,214.741317 105.818446,213.892267 C105.818446,213.014107 105.221686,212.39794 104.358081,212.39794 C103.494477,212.39794 102.878309,213.014107 102.878309,213.868009 C102.878309,214.731613 103.513883,215.391446 104.348378,215.391446 Z M108.564515,216.133758 L111.650204,210.127339 L111.650204,210.049711 L107.98231,210.049711 L107.98231,209.132738 L112.751543,209.132738 L112.751543,210.07397 L109.704668,216.133758 L108.564515,216.133758 Z M116.433992,216.303568 C114.876592,216.303568 113.804364,215.469073 113.804364,214.260997 C113.804364,213.363431 114.391421,212.655081 115.288988,212.475567 L115.288988,212.393088 C114.561231,212.208723 114.085763,211.602259 114.085763,210.845392 C114.085763,209.744054 115.060957,208.962928 116.433992,208.962928 C117.807026,208.962928 118.78222,209.744054 118.78222,210.845392 C118.78222,211.607111 118.316456,212.203871 117.578996,212.393088 L117.578996,212.475567 C118.476562,212.645377 119.068471,213.353727 119.068471,214.256146 C119.068471,215.464222 117.991391,216.303568 116.433992,216.303568 Z M116.433992,212.05832 C117.195711,212.05832 117.714844,211.611963 117.714844,210.947278 C117.714844,210.27289 117.200562,209.821681 116.433992,209.821681 C115.667421,209.821681 115.157992,210.27289 115.157992,210.947278 C115.157992,211.611963 115.672273,212.05832 116.433992,212.05832 Z M116.433992,215.439963 C117.331559,215.439963 117.952578,214.92083 117.952578,214.173666 C117.952578,213.426503 117.331559,212.912221 116.433992,212.912221 C115.536425,212.912221 114.915406,213.426503 114.915406,214.173666 C114.915406,214.92083 115.536425,215.439963 116.433992,215.439963 Z" id="12AB№345678" fill="#FF4732" fill-rule="nonzero" mask="url(#mask-3)"></path>
                <rect id="Rectangle" fill-opacity="0.240913723" fill="#000000" mask="url(#mask-3)" x="39.7452229" y="16.0509554" width="80.2547771" height="6.11464968" rx="3.05732484"></rect>
                <rect id="Rectangle" fill-opacity="0.240913723" fill="#000000" mask="url(#mask-3)" x="19.8726115" y="32.1019108" width="119.235669" height="6.11464968" rx="3.05732484"></rect>
                <rect id="Rectangle" fill-opacity="0.240913723" fill="#000000" mask="url(#mask-3)" x="26.7515924" y="42.0382166" width="105.477707" height="6.11464968" rx="3.05732484"></rect>
                <rect id="Rectangle" fill-opacity="0.240913723" fill="#000000" mask="url(#mask-3)" x="11.4649682" y="62.6751592" width="51.2101911" height="3.82165605" rx="1.91082803"></rect>
                <rect id="Rectangle" fill-opacity="0.240913723" fill="#000000" mask="url(#mask-3)" x="11.4649682" y="71.8471338" width="77.9617834" height="3.82165605" rx="1.91082803"></rect>
                <rect id="Rectangle" fill-opacity="0.240913723" fill="#000000" mask="url(#mask-3)" x="11.4649682" y="88.6624204" width="25.2229299" height="3.82165605" rx="1.91082803"></rect>
                <rect id="Rectangle" fill-opacity="0.240913723" fill="#000000" mask="url(#mask-3)" x="11.4649682" y="97.8343949" width="11.4649682" height="3.82165605" rx="1.91082803"></rect>
                <rect id="Rectangle" fill-opacity="0.240913723" fill="#000000" mask="url(#mask-3)" x="11.4649682" y="107.006369" width="37.4522293" height="3.82165605" rx="1.91082803"></rect>
                <rect id="Rectangle" fill-opacity="0.240913723" fill="#000000" mask="url(#mask-3)" x="11.4649682" y="116.178344" width="25.9872611" height="3.82165605" rx="1.91082803"></rect>
                <rect id="Rectangle" fill-opacity="0.240913723" fill="#000000" mask="url(#mask-3)" x="11.4649682" y="125.350318" width="18.343949" height="3.82165605" rx="1.91082803"></rect>
                <rect id="Rectangle" fill-opacity="0.240913723" fill="#000000" mask="url(#mask-3)" x="11.4649682" y="134.522293" width="20.6369427" height="3.82165605" rx="1.91082803"></rect>
                <rect id="Rectangle" fill-opacity="0.240913723" fill="#000000" mask="url(#mask-3)" x="11.4649682" y="143.694268" width="11.4649682" height="3.82165605" rx="1.91082803"></rect>
                <rect id="Rectangle" fill-opacity="0.240913723" fill="#000000" mask="url(#mask-3)" x="11.4649682" y="152.866242" width="45.8598726" height="3.82165605" rx="1.91082803"></rect>
                <rect id="Rectangle" fill-opacity="0.240913723" fill="#000000" mask="url(#mask-3)" x="11.4649682" y="162.038217" width="37.4522293" height="3.82165605" rx="1.91082803"></rect>
                <rect id="Rectangle" fill-opacity="0.240913723" fill="#000000" mask="url(#mask-3)" x="11.4649682" y="171.210191" width="29.8089172" height="3.82165605" rx="1.91082803"></rect>
                <rect id="Rectangle" fill-opacity="0.240913723" fill="#000000" mask="url(#mask-3)" x="11.4649682" y="180.382166" width="45.8598726" height="3.82165605" rx="1.91082803"></rect>
                <rect id="Rectangle" fill-opacity="0.240913723" fill="#000000" mask="url(#mask-3)" x="11.4649682" y="189.55414" width="37.4522293" height="3.82165605" rx="1.91082803"></rect>
            </g>
        </g>
    </g>
</svg>